<svg width="56" height="56" viewBox="0 0 56 56" fill="none" xmlns="http://www.w3.org/2000/svg">
<circle cx="28" cy="28" r="27" stroke="#BD00FF" stroke-width="2"/>
<path d="M42.4293 23.8489C42.6073 23.7157 42.6667 23.516 42.6667 23.3162C42.6667 14.9922 35.9027 8 27.8333 8C19.764 8 13 14.9922 13 23.3162C13 23.516 13.0593 23.7157 13.2373 23.8489L26.0533 34.6368H20.7133C20.5353 34.6368 20.3573 34.7034 20.2387 34.9032L17.8653 38.2328C17.6873 38.4326 17.6873 38.7656 17.806 38.9653L20.12 43.4936V47.2893C20.12 47.6889 20.3573 47.9553 20.7133 47.9553H34.9533C35.3093 47.9553 35.5467 47.6889 35.5467 47.2893V43.4936L37.8607 38.9653C37.9793 38.699 37.9793 38.4326 37.8013 38.2328L35.428 34.9032C35.3093 34.7034 35.1313 34.6368 34.9533 34.6368H29.6133L42.4293 23.8489ZM22.4933 46.6234H21.3067V39.9642H22.4933V46.6234ZM22.4933 38.6324H20.7133C20.3573 38.6324 20.12 38.8987 20.12 39.2983V40.7633L19.052 38.699L21.01 35.9687H22.4933V38.6324ZM24.8667 46.6234H23.68V35.9687H24.8667V46.6234ZM33.1733 35.9687H34.6567L36.6147 38.699L35.5467 40.7633V39.2983C35.5467 38.8987 35.3093 38.6324 34.9533 38.6324H33.1733V35.9687ZM33.1733 39.9642H34.36V46.6234H33.1733V39.9642ZM30.8 35.9687H31.9867V46.6234H30.8V35.9687ZM29.91 11.0632C32.402 13.2608 35.962 17.3229 36.14 22.9166L33.7667 23.9821L31.3933 22.9166C31.4527 21.1186 31.512 15.2585 29.91 11.0632ZM30.2067 22.85L27.8333 23.9155L25.46 22.85C25.4007 20.9855 25.3413 13.2608 27.8333 9.6648C30.3253 13.2608 30.266 20.9855 30.2067 22.85ZM24.2733 22.85L21.9 23.9155L19.5267 22.85C19.7047 17.2563 23.2647 13.1942 25.7567 10.9966C24.1547 15.2585 24.214 21.1186 24.2733 22.85ZM14.1867 22.9832C14.3647 16.324 19.2893 10.6637 25.5193 9.53162C22.8493 11.7292 18.518 16.324 18.34 22.9166L16.026 24.5148L14.1867 22.9832ZM17.0347 25.3805L18.9927 24.0487L21.4847 25.1808L25.638 32.6391L17.0347 25.3805ZM22.79 24.981L24.8667 24.0487L27.24 25.1142V32.972L22.79 24.981ZM29.6133 46.6234H26.0533V39.9642H29.6133V46.6234ZM29.6133 35.9687V38.6324H26.0533V35.9687H29.6133ZM28.4267 32.972V25.1142L30.8 24.0487L32.8767 24.981L28.4267 32.972ZM30.0287 32.6391L34.182 25.1808L36.674 24.0487L38.632 25.3805L30.0287 32.6391ZM37.3267 22.9166C37.1487 16.2574 32.8173 11.7292 30.1473 9.53162C36.3773 10.6637 41.302 16.324 41.48 22.9832L39.6407 24.5148L37.3267 22.9166Z" fill="#FFB803"/>
<path d="M28.4267 43.9595H27.24V45.292H28.4267V43.9595Z" fill="#FFB803"/>
<path d="M28.4267 41.2964H27.24V42.6278H28.4267V41.2964Z" fill="#FFB803"/>
<path d="M17.1533 19.3206H15.9667V20.6525H17.1533V19.3206Z" fill="#FFB803"/>
<path d="M39.1067 17.3232H37.92V18.6549H39.1067V17.3232Z" fill="#FFB803"/>
</svg>
