<svg width="24" height="20" viewBox="0 0 24 20" fill="none" xmlns="http://www.w3.org/2000/svg">
<path d="M12.5 17.125V15.875C12.5 15.212 12.2366 14.5761 11.7678 14.1072C11.2989 13.6384 10.663 13.375 10 13.375H5C4.33696 13.375 3.70107 13.6384 3.23223 14.1072C2.76339 14.5761 2.5 15.212 2.5 15.875V17.125" stroke="#8C99B1" stroke-opacity="0.7" stroke-linecap="round" stroke-linejoin="round"/>
<path d="M7.5 10.875C8.88071 10.875 10 9.75571 10 8.375C10 6.99429 8.88071 5.875 7.5 5.875C6.11929 5.875 5 6.99429 5 8.375C5 9.75571 6.11929 10.875 7.5 10.875Z" stroke="#8C99B1" stroke-opacity="0.7" stroke-linecap="round" stroke-linejoin="round"/>
<path d="M20.6668 17.5V15.8333C20.6668 14.9493 20.3156 14.1014 19.6905 13.4763C19.0654 12.8512 18.2176 12.5 17.3335 12.5H10.6668C9.78277 12.5 8.93493 12.8512 8.30981 13.4763C7.68469 14.1014 7.3335 14.9493 7.3335 15.8333V17.5" stroke="#4F6182" stroke-width="2" stroke-linecap="round" stroke-linejoin="round"/>
<path d="M13.9998 9.16667C15.8408 9.16667 17.3332 7.67428 17.3332 5.83333C17.3332 3.99238 15.8408 2.5 13.9998 2.5C12.1589 2.5 10.6665 3.99238 10.6665 5.83333C10.6665 7.67428 12.1589 9.16667 13.9998 9.16667Z" stroke="#4F6182" stroke-width="2" stroke-linecap="round" stroke-linejoin="round"/>
</svg>
