<svg width="27" height="28" viewBox="0 0 27 28" fill="none" xmlns="http://www.w3.org/2000/svg">
<path d="M10.55 14.8449C10.8458 14.8676 11.1102 14.6981 11.2365 14.4564L13.149 10.7965C13.7625 9.62251 14.7722 8.69961 15.9829 8.23336L18.7213 7.11485C18.879 7.06539 19.0006 7.085 19.0697 7.12108C19.1387 7.15717 19.2423 7.2113 19.2737 7.40354L19.9191 10.2902C20.2096 11.5849 20.0285 12.9408 19.4331 14.0803L17.5205 17.7402C17.3942 17.9819 17.4061 18.2958 17.5936 18.5256L17.7977 18.8081C18.3769 19.5503 18.4107 20.579 17.9267 21.3371L16.7617 23.1459C16.148 22.3856 15.4456 21.7109 14.6726 21.0872C14.518 20.9624 14.2748 20.9232 14.0825 20.9547C13.8903 20.9861 13.6785 21.1391 13.5883 21.3117L13.3537 21.7606L10.3153 20.1728L10.5498 19.724C10.6581 19.5168 10.6792 19.3081 10.5607 19.1143C10.4948 18.904 10.3057 18.7612 10.115 18.7055C9.17961 18.3926 8.22464 18.2012 7.23203 18.166L8.03371 16.2113C8.39768 15.3466 9.24349 14.8215 10.1835 14.8732L10.55 14.8449Z" fill="white"/>
<path d="M11.8025 26.6641C12.1478 26.8446 12.6029 26.7307 12.8014 26.3509L13.4329 25.1424C13.6133 24.7972 13.4995 24.3421 13.1196 24.1436C12.7744 23.9632 12.3193 24.077 12.1208 24.4568L11.4893 25.6653C11.3089 26.0106 11.4227 26.4657 11.8025 26.6641Z" fill="white"/>
<path d="M8.98255 26.5095C9.32783 26.69 9.78292 26.5761 9.98139 26.1963L11.1542 23.952C11.3346 23.6067 11.2208 23.1516 10.841 22.9532C10.4612 22.7547 10.0406 22.8866 9.84212 23.2664L8.66933 25.5107C8.47086 25.8905 8.63727 26.3291 8.98255 26.5095Z" fill="white"/>
<path d="M7.24478 24.2825C7.59006 24.463 8.04515 24.3491 8.24362 23.9693L8.87512 22.7608C9.05555 22.4156 8.94172 21.9605 8.56191 21.762C8.21663 21.5816 7.76154 21.6954 7.56307 22.0752L6.93157 23.2837C6.75114 23.629 6.8995 24.1021 7.24478 24.2825Z" fill="white"/>
<path d="M14.2328 16.4616C15.4067 17.0751 16.8787 16.6135 17.4921 15.4396C18.1056 14.2656 17.644 12.7936 16.4701 12.1802C15.2961 11.5667 13.8241 12.0283 13.2107 13.2022C12.5972 14.3762 13.0588 15.8482 14.2328 16.4616ZM15.7844 13.4922C16.2333 13.7268 16.4146 14.3051 16.1801 14.7539C15.9455 15.2028 15.3672 15.3841 14.9184 15.1496C14.4695 14.915 14.2882 14.3367 14.5227 13.8879C14.7573 13.439 15.3356 13.2577 15.7844 13.4922Z" fill="#2A015C"/>
</svg>
