<svg width="109" height="109" viewBox="0 0 109 109" fill="none" xmlns="http://www.w3.org/2000/svg">
<g clip-path="url(#clip0_230_267)">
<path d="M2.04212 104.654C3.16993 104.654 4.08423 105.627 4.08423 106.827C4.08423 108.027 3.16993 109 2.04212 109C0.914304 109 7.71445e-06 108.027 7.81938e-06 106.827C7.9243e-06 105.627 0.914304 104.654 2.04212 104.654Z" fill="#F3AD4C"/>
<path d="M2.04212 88.7035C3.16993 88.7035 4.08423 89.6764 4.08423 90.8766C4.08423 92.0768 3.16993 93.0498 2.04212 93.0498C0.914304 93.0498 7.71445e-06 92.0768 7.81938e-06 90.8766C7.9243e-06 89.6764 0.914304 88.7035 2.04212 88.7035Z" fill="#F3AD4C"/>
<path d="M2.04213 72.7535C3.16994 72.7535 4.08423 73.7265 4.08423 74.9267C4.08423 76.1269 3.16994 77.0999 2.04213 77.0999C0.914322 77.0999 3.06026e-05 76.1269 3.07076e-05 74.9267C3.08125e-05 73.7265 0.914322 72.7535 2.04213 72.7535Z" fill="#F3AD4C"/>
<path d="M2.04213 56.8033C3.16994 56.8033 4.08423 57.7763 4.08423 58.9765C4.08423 60.1767 3.16994 61.1497 2.04213 61.1497C0.914322 61.1497 3.06026e-05 60.1767 3.07076e-05 58.9765C3.08125e-05 57.7763 0.914322 56.8033 2.04213 56.8033Z" fill="#F3AD4C"/>
<path d="M2.04213 40.8531C3.16994 40.8531 4.08423 41.8261 4.08423 43.0263C4.08423 44.2265 3.16994 45.1995 2.04213 45.1995C0.914322 45.1995 3.06026e-05 44.2265 3.07076e-05 43.0263C3.08125e-05 41.8261 0.914322 40.8531 2.04213 40.8531Z" fill="#F3AD4C"/>
<path d="M2.04213 24.9049C3.16994 24.9049 4.08423 25.8779 4.08423 27.0781C4.08423 28.2783 3.16994 29.2512 2.04213 29.2512C0.914316 29.2512 2.29732e-05 28.2783 2.30782e-05 27.0781C2.31831e-05 25.8779 0.914316 24.9049 2.04213 24.9049Z" fill="#F3AD4C"/>
<path d="M14.9858 106.773C14.9576 107.973 15.8488 108.97 16.9763 109C18.1038 109.03 19.0406 108.081 19.0688 106.881C19.097 105.682 18.2059 104.685 17.0784 104.655C15.9509 104.625 15.014 105.573 14.9858 106.773Z" fill="#F3AD4C"/>
<path d="M14.9856 90.8226C14.9574 92.0225 15.8485 93.0195 16.976 93.0495C18.1035 93.0795 19.0404 92.1311 19.0686 90.9313C19.0968 89.7315 18.2056 88.7345 17.0781 88.7045C15.9506 88.6745 15.0138 89.6228 14.9856 90.8226Z" fill="#F3AD4C"/>
<path d="M14.9851 74.8724C14.9569 76.0723 15.848 77.0693 16.9755 77.0993C18.103 77.1293 19.0399 76.181 19.0681 74.9811C19.0963 73.7813 18.2051 72.7843 17.0776 72.7543C15.9501 72.7243 15.0133 73.6726 14.9851 74.8724Z" fill="#F3AD4C"/>
<path d="M17.0304 56.8033C18.1582 56.8033 19.0725 57.7763 19.0725 58.9765C19.0725 60.1767 18.1582 61.1497 17.0304 61.1497C15.9026 61.1497 14.9883 60.1767 14.9883 58.9765C14.9883 57.7763 15.9026 56.8033 17.0304 56.8033Z" fill="#F3AD4C"/>
<path d="M14.987 42.9844C14.9626 44.1844 15.8568 45.1783 16.9844 45.2043C18.112 45.2304 19.046 44.2787 19.0704 43.0787C19.0949 41.8788 18.2006 40.8849 17.073 40.8588C15.9454 40.8328 15.0115 41.7845 14.987 42.9844Z" fill="#F3AD4C"/>
<path d="M17.0304 24.9049C18.1582 24.9049 19.0725 25.8779 19.0725 27.0781C19.0725 28.2783 18.1582 29.2512 17.0304 29.2512C15.9026 29.2512 14.9883 28.2783 14.9883 27.0781C14.9883 25.8779 15.9026 24.9049 17.0304 24.9049Z" fill="#F3AD4C"/>
<path d="M2.04213 11.8446C3.16994 11.8446 4.08423 12.8176 4.08423 14.0178C4.08423 15.218 3.16994 16.1909 2.04213 16.1909C0.914316 16.1909 2.29732e-05 15.218 2.30782e-05 14.0178C2.31831e-05 12.8176 0.914316 11.8446 2.04213 11.8446Z" fill="#F3AD4C"/>
<path d="M2.04213 0.000121892C3.16994 0.00012199 4.08423 0.973091 4.08423 2.17328C4.08423 3.37347 3.16994 4.34644 2.04213 4.34644C0.914316 4.34644 2.29732e-05 3.37347 2.30782e-05 2.17328C2.31831e-05 0.97309 0.914316 0.000121793 2.04213 0.000121892Z" fill="#F3AD4C"/>
<path d="M14.9927 13.9645C14.9671 15.1643 15.8604 16.1591 16.9879 16.1863C18.1154 16.2135 19.0501 15.263 19.0757 14.0631C19.1013 12.8633 18.2081 11.8685 17.0806 11.8413C15.9531 11.814 15.0183 12.7646 14.9927 13.9645Z" fill="#F3AD4C"/>
<path d="M31.9633 104.651C30.8359 104.684 29.9473 105.684 29.9785 106.883C30.0098 108.083 30.949 109.029 32.0764 108.995C33.2038 108.962 34.0924 107.963 34.0611 106.763C34.0299 105.563 33.0906 104.618 31.9633 104.651Z" fill="#F3AD4C"/>
<path d="M31.964 88.7009C30.8366 88.7342 29.948 89.7337 29.9793 90.9334C30.0105 92.1332 30.9497 93.0788 32.0771 93.0455C33.2045 93.0123 34.0931 92.0128 34.0618 90.8131C34.0306 89.6133 33.0914 88.6677 31.964 88.7009Z" fill="#F3AD4C"/>
<path d="M31.9645 72.751C30.8371 72.7843 29.9485 73.7838 29.9798 74.9835C30.011 76.1832 30.9502 77.1288 32.0776 77.0956C33.205 77.0624 34.0936 76.0628 34.0623 74.8631C34.0311 73.6634 33.0919 72.7178 31.9645 72.751Z" fill="#F3AD4C"/>
<path d="M32.0187 56.8033C33.1465 56.8033 34.0608 57.7763 34.0608 58.9765C34.0608 60.1767 33.1465 61.1497 32.0187 61.1497C30.8909 61.1497 29.9766 60.1767 29.9766 58.9765C29.9747 57.7763 30.8909 56.8033 32.0187 56.8033Z" fill="#F3AD4C"/>
<path d="M31.9707 40.8558C30.8432 40.8844 29.951 41.8802 29.9778 43.0801C30.0046 44.2799 30.9404 45.2295 32.0679 45.2009C33.1954 45.1723 34.0876 44.1765 34.0608 42.9766C34.0339 41.7768 33.0982 40.8273 31.9707 40.8558Z" fill="#F3AD4C"/>
<path d="M32.0187 24.9049C33.1465 24.9049 34.0608 25.8779 34.0608 27.0781C34.0608 28.2783 33.1465 29.2512 32.0187 29.2512C30.8909 29.2512 29.9766 28.2783 29.9766 27.0781C29.9766 25.8779 30.8909 24.9049 32.0187 24.9049Z" fill="#F3AD4C"/>
<path d="M46.9493 104.652C45.822 104.685 44.9334 105.684 44.9646 106.884C44.9958 108.084 45.9351 109.029 47.0625 108.996C48.1898 108.963 49.0784 107.963 49.0472 106.764C49.016 105.564 48.0767 104.618 46.9493 104.652Z" fill="#F3AD4C"/>
<path d="M46.9501 88.7017C45.8227 88.7349 44.9341 89.7345 44.9653 90.9342C44.9966 92.1339 45.9358 93.0795 47.0632 93.0463C48.1906 93.013 49.0792 92.0135 49.0479 90.8138C49.0167 89.6141 48.0774 88.6685 46.9501 88.7017Z" fill="#F3AD4C"/>
<path d="M46.9508 72.7517C45.8234 72.785 44.9348 73.7845 44.9661 74.9842C44.9973 76.184 45.9366 77.1296 47.0639 77.0963C48.1913 77.0631 49.0799 76.0636 49.0487 74.8638C49.0174 73.6641 48.0782 72.7185 46.9508 72.7517Z" fill="#F3AD4C"/>
<path d="M47.005 56.8033C48.1328 56.8033 49.0471 57.7763 49.0471 58.9765C49.0471 60.1767 48.1328 61.1497 47.005 61.1497C45.8772 61.1497 44.9629 60.1767 44.9629 58.9765C44.9629 57.7763 45.8772 56.8033 47.005 56.8033Z" fill="#F3AD4C"/>
<path d="M46.9568 40.8556C45.8293 40.8842 44.937 41.88 44.9639 43.0799C44.9907 44.2797 45.9265 45.2292 47.054 45.2006C48.1814 45.1721 49.0737 44.1763 49.0469 42.9764C49.02 41.7766 48.0842 40.8271 46.9568 40.8556Z" fill="#F3AD4C"/>
<path d="M61.9374 104.652C60.81 104.686 59.9214 105.685 59.9527 106.885C59.9839 108.085 60.9231 109.03 62.0505 108.997C63.1779 108.964 64.0665 107.964 64.0352 106.764C64.004 105.565 63.0647 104.619 61.9374 104.652Z" fill="#F3AD4C"/>
<path d="M61.9381 88.7024C60.8107 88.7357 59.9222 89.7352 59.9534 90.9349C59.9846 92.1346 60.9239 93.0803 62.0512 93.047C63.1786 93.0138 64.0672 92.0142 64.036 90.8145C64.0047 89.6148 63.0655 88.6692 61.9381 88.7024Z" fill="#F3AD4C"/>
<path d="M61.9388 72.7525C60.8115 72.7857 59.9229 73.7852 59.9541 74.985C59.9854 76.1847 60.9246 77.1303 62.052 77.0971C63.1793 77.0638 64.0679 76.0643 64.0367 74.8646C64.0055 73.6648 63.0662 72.7192 61.9388 72.7525Z" fill="#F3AD4C"/>
<path d="M61.9933 56.8033C63.1211 56.8033 64.0354 57.7763 64.0354 58.9765C64.0354 60.1767 63.1211 61.1497 61.9933 61.1497C60.8655 61.1497 59.9512 60.1767 59.9512 58.9765C59.9512 57.7763 60.8655 56.8033 61.9933 56.8033Z" fill="#F3AD4C"/>
<path d="M76.9254 104.653C75.798 104.686 74.9094 105.686 74.9407 106.886C74.9719 108.085 75.9112 109.031 77.0385 108.998C78.1659 108.964 79.0545 107.965 79.0233 106.765C78.992 105.565 78.0528 104.62 76.9254 104.653Z" fill="#F3AD4C"/>
<path d="M76.9261 88.7032C75.7988 88.7364 74.9102 89.7359 74.9414 90.9356C74.9727 92.1354 75.9119 93.081 77.0393 93.0477C78.1666 93.0145 79.0552 92.015 79.024 90.8153C78.9928 89.6155 78.0535 88.6699 76.9261 88.7032Z" fill="#F3AD4C"/>
<path d="M76.9269 72.7534C75.7995 72.7867 74.9109 73.7862 74.9421 74.9859C74.9734 76.1857 75.9126 77.1313 77.04 77.098C78.1674 77.0648 79.056 76.0653 79.0247 74.8655C78.9935 73.6658 78.0542 72.7202 76.9269 72.7534Z" fill="#F3AD4C"/>
<path d="M91.9134 104.654C90.7861 104.687 89.8975 105.687 89.9287 106.886C89.96 108.086 90.8992 109.032 92.0266 108.998C93.154 108.965 94.0425 107.966 94.0113 106.766C93.9801 105.566 93.0408 104.621 91.9134 104.654Z" fill="#F3AD4C"/>
<path d="M91.9142 88.7039C90.7868 88.7371 89.8982 89.7367 89.9295 90.9364C89.9607 92.1361 90.8999 93.0817 92.0273 93.0485C93.1547 93.0152 94.0433 92.0157 94.012 90.816C93.9808 89.6163 93.0416 88.6706 91.9142 88.7039Z" fill="#F3AD4C"/>
<path d="M106.958 104.654C105.83 104.654 104.916 105.627 104.916 106.827C104.916 108.027 105.83 109 106.958 109C108.086 109 109 108.027 109 106.827C109 105.627 108.086 104.654 106.958 104.654Z" fill="#F3AD4C"/>
</g>
<defs>
<clipPath id="clip0_230_267">
<rect width="109" height="109" fill="white" transform="translate(109 109) rotate(-180)"/>
</clipPath>
</defs>
</svg>
