<svg width="87" height="87" viewBox="0 0 87 87" fill="none" xmlns="http://www.w3.org/2000/svg">
<g clip-path="url(#clip0_2446_13027)">
<path d="M63.9124 10.0848C64.0357 14.8698 67.3634 19.6221 73.6455 19.6221C79.5217 19.6221 83.4004 15.2141 83.4004 9.81288C83.4004 4.93725 80.0473 0 73.6419 0C70.1692 0 66.9864 1.5515 65.1775 4.78862L49.6009 0.116C48.1002 -0.329875 46.574 0.561875 46.1898 2.02638L39.2189 28.5251C31.1134 29.1051 23.7112 31.3418 17.6465 34.7203C7.60528 25.3134 -6.1226 40.6399 2.81666 51.2575C-3.6141 71.3473 19.4699 87 43.5 87C67.7187 87 90.5308 71.0863 84.1834 51.2575C93.0937 40.6761 79.4673 25.3243 69.339 34.713C62.5603 30.943 54.0923 28.6303 44.8703 28.42L50.7319 6.1335L63.9124 10.0848ZM73.6419 5.4375C76.8283 5.4375 77.9593 7.79375 77.9593 9.8165C77.9593 12.2344 76.4767 14.1883 73.6419 14.1883C70.4519 14.1883 69.3245 11.832 69.3245 9.80925C69.3245 7.366 70.818 5.4375 73.6419 5.4375V5.4375ZM12.7999 37.8994C9.92528 40.0997 7.52553 42.601 5.70578 45.3379C4.32828 40.2194 8.74716 35.7969 12.7999 37.8994ZM43.5 81.5625C11.0817 81.5625 -5.06047 55.5277 18.1903 40.6072C19.72 39.904 27.8473 33.8068 43.5 33.8068C57.1155 33.8068 63.3433 38.0988 68.8025 40.6036C91.9663 55.4625 76.1178 81.5625 43.5 81.5625V81.5625ZM81.2943 45.3415C79.4745 42.601 77.0748 40.0997 74.1965 37.8994C78.3327 35.7642 82.6609 40.2701 81.2943 45.3415Z" fill="white"/>
<path d="M37.3554 54.1396C37.3554 49.3509 33.7377 46.1428 29.3188 46.1428C25.4183 46.1428 21.2749 48.9449 21.2749 54.1396C21.2749 58.9246 24.8854 62.1363 29.3115 62.1363C33.212 62.1363 37.3554 59.3342 37.3554 54.1396ZM26.7124 54.1396C26.7124 51.7652 28.7062 51.5803 29.3188 51.5803C30.7797 51.5803 31.9179 52.4104 31.9179 54.1396C31.9179 56.5139 29.9242 56.6988 29.3115 56.6988C28.7025 56.6988 26.7124 56.5139 26.7124 54.1396Z" fill="white"/>
<path d="M57.6882 46.1428C53.7877 46.1428 49.6443 48.9449 49.6443 54.1396C49.6443 58.9246 53.2548 62.1363 57.6809 62.1363C61.5814 62.1363 65.7248 59.3342 65.7248 54.1396C65.7248 49.3509 62.107 46.1428 57.6882 46.1428ZM57.6809 56.6988C57.0719 56.6988 55.0818 56.5139 55.0818 54.1396C55.0818 51.7652 57.0755 51.5803 57.6882 51.5803C59.149 51.5803 60.2873 52.4104 60.2873 54.1396C60.2873 56.5139 58.2935 56.6988 57.6809 56.6988Z" fill="white"/>
<path d="M55.4516 66.7724C51.4423 72.2715 35.6808 72.3404 31.5519 66.776C29.5219 63.8325 25.0777 66.8594 27.0533 69.8283C32.8207 78.5355 54.1792 78.5392 59.9466 69.8283C61.8896 66.9174 57.5287 63.8833 55.4516 66.7724Z" fill="white"/>
</g>
<defs>
<clipPath id="clip0_2446_13027">
<rect width="87" height="87" fill="white"/>
</clipPath>
</defs>
</svg>
