<svg width="83" height="72" viewBox="0 0 83 72" fill="none" xmlns="http://www.w3.org/2000/svg">
<path d="M76.7077 4.49767L76.4332 3.80279C76.4252 3.78285 76.4098 3.76637 76.39 3.75749L75.7087 3.44863C70.0999 0.90556 62.1886 0.278083 55.1889 0H47.3051C47.2161 0 47.1889 0.120077 47.269 0.158441L63.4631 7.90858C63.5545 7.95215 63.5039 8.08783 63.4058 8.06225C56.1227 6.16357 48.7653 5.20252 41.5 5.20252C34.2583 5.20252 26.9247 6.15772 19.664 8.04426C19.5652 8.06984 19.5151 7.93264 19.6078 7.88994L36.37 0.159307C36.4512 0.121811 36.4248 0.000433251 36.3351 0.000433251H27.8114C20.812 0.278517 12.9002 0.905993 7.29161 3.44906L6.61028 3.75792C6.59052 3.76681 6.57488 3.78306 6.56707 3.80322L6.29262 4.4981C0.552714 19.017 -1.07833 43.665 0.66106 59.1061L0.752252 59.9158L1.39755 60.4154C10.3644 67.3564 22.3542 70.9251 29.8969 71.8721L30.8722 71.9946C31.1892 72.0344 31.4921 71.8515 31.6042 71.5528L36.5133 58.4599C36.6664 58.0518 36.4059 57.6062 35.9747 57.5386L34.4682 57.3023C29.2153 56.4785 21.773 54.2945 15.4835 48.6007C15.3493 48.4791 15.4787 48.2606 15.6485 48.3234C16.1596 48.5131 16.7233 48.7329 17.3037 48.9592C18.7258 49.5138 20.1966 50.0873 21.1563 50.3149C27.9011 51.9158 34.7407 52.7277 41.4996 52.7277V52.6076H41.5137L41.5146 52.7277C48.2598 52.7277 55.0992 51.916 61.8433 50.3149C62.8034 50.0871 64.2742 49.5138 65.6966 48.9589C66.2766 48.7327 66.84 48.5129 67.3509 48.3234C67.5207 48.2606 67.6501 48.4793 67.5159 48.6007C61.2475 54.2694 53.7958 56.4477 48.5312 57.2709L47.0252 57.5063C46.594 57.5737 46.333 58.0189 46.4859 58.427L51.3959 71.5522C51.5078 71.8511 51.8109 72.0342 52.1279 71.9943L53.1041 71.8719C60.6463 70.9249 72.6353 67.3562 81.6023 60.4152L82.2476 59.9156L82.3388 59.1058C84.0784 43.6649 82.4474 19.0167 76.7077 4.49767ZM25.4771 40.1439C19.3796 40.6867 14.2926 35.609 14.8356 29.5221C15.2521 24.8563 19.0157 21.0988 23.69 20.6826C29.7875 20.1399 34.8745 25.2176 34.3315 31.3044C33.9148 35.9703 30.1511 39.7278 25.4771 40.1439ZM59.3108 40.1439C53.2133 40.6867 48.1263 35.609 48.6693 29.5221C49.0857 24.8563 52.8494 21.0988 57.5236 20.6826C63.6209 20.1399 68.7082 25.2176 68.1651 31.3044C67.7485 35.9703 63.9848 39.7278 59.3108 40.1439Z" fill="white"/>
</svg>
