<svg width="90" height="91" viewBox="0 0 90 91" fill="none" xmlns="http://www.w3.org/2000/svg">
<g clip-path="url(#clip0_2446_13041)">
<path d="M0.0356075 90.9998C0.0356075 90.4923 0.0356075 90.1032 0.0356075 89.7161C0.0316939 74.9635 0.115837 60.2129 0.00234156 45.4623C-0.146377 26.2247 11.8724 9.87833 28.6189 3.40456C43.9251 -2.51622 58.5191 -0.772375 71.7824 9.08441C82.0616 16.7234 88.1042 27.1568 89.6579 39.9878C92.2859 61.6665 79.4727 81.9093 58.9417 88.7958C54.5154 90.281 49.9443 90.9643 45.2851 90.9702C30.4759 90.9919 15.6686 90.9919 0.859428 90.9998C0.634394 90.9998 0.40936 90.9998 0.0356075 90.9998ZM17.8348 73.0834C18.2575 73.0024 18.5099 72.9649 18.7565 72.9037C23.6231 71.6911 28.4878 70.4647 33.3602 69.2778C33.7927 69.1731 34.3387 69.1988 34.7437 69.3726C39.1348 71.2724 43.6923 71.8945 48.4199 71.2784C62.7556 69.4101 72.8156 55.7575 70.442 41.3999C68.0586 26.985 54.6504 17.4541 40.3872 20.0353C23.8423 23.0293 14.5161 41.3861 21.8072 56.6699C22.2553 57.61 22.3062 58.3822 21.997 59.3617C20.5822 63.8685 19.2457 68.4029 17.8348 73.0834Z" fill="white"/>
</g>
<defs>
<clipPath id="clip0_2446_13041">
<rect width="90" height="91" fill="white"/>
</clipPath>
</defs>
</svg>
