<svg width="89" height="74" viewBox="0 0 89 74" fill="none" xmlns="http://www.w3.org/2000/svg">
<path d="M86.8703 9.03564C85.4739 9.65497 84.0383 10.1777 82.5714 10.602C84.3081 8.63796 85.6322 6.32696 86.4405 3.79805C86.6217 3.2312 86.4339 2.61073 85.968 2.23999C85.5026 1.86897 84.8561 1.82453 84.3437 2.12817C81.2284 3.97582 77.8674 5.30364 74.3433 6.08009C70.7934 2.6113 65.9718 0.637207 60.9874 0.637207C50.4661 0.637207 41.9062 9.19678 41.9062 19.7178C41.9062 20.5465 41.9587 21.3705 42.0625 22.1831C29.0065 21.0368 16.8686 14.6196 8.53354 4.3953C8.2365 4.03087 7.77889 3.83447 7.31038 3.87203C6.84159 3.90873 6.42039 4.17309 6.18355 4.57938C4.49303 7.48017 3.59931 10.7978 3.59931 14.1735C3.59931 18.7711 5.2408 23.1333 8.14045 26.5419C7.25877 26.2365 6.40318 25.8549 5.58659 25.4016C5.14819 25.1576 4.61317 25.1613 4.17763 25.411C3.74181 25.6608 3.46856 26.1201 3.45709 26.6222C3.45509 26.7067 3.45509 26.7913 3.45509 26.8771C3.45509 33.7398 7.14867 39.9184 12.7957 43.286C12.3106 43.2375 11.8257 43.1673 11.344 43.0752C10.8474 42.9803 10.3368 43.1544 10.0019 43.5331C9.66639 43.9116 9.55543 44.4392 9.70997 44.9209C11.8002 51.4467 17.1817 56.2468 23.6875 57.7102C18.2916 61.0898 12.121 62.8601 5.64337 62.8601C4.29175 62.8601 2.93239 62.7806 1.60199 62.6232C0.941089 62.5447 0.309149 62.9349 0.084071 63.5634C-0.141007 64.1922 0.097547 64.8932 0.659813 65.2536C8.98141 70.5893 18.6036 73.4095 28.4855 73.4095C47.9122 73.4095 60.065 64.2487 66.8389 56.5636C75.2858 46.981 80.1303 34.2972 80.1303 21.7648C80.1303 21.2412 80.1222 20.7125 80.1062 20.1855C83.4388 17.6746 86.308 14.6359 88.6428 11.1434C88.9975 10.6129 88.9591 9.91187 88.5482 9.42358C88.1379 8.935 87.4541 8.77702 86.8703 9.03564Z" fill="white"/>
</svg>
