<svg width="56" height="44" viewBox="0 0 56 44" fill="none" xmlns="http://www.w3.org/2000/svg">
<path d="M51.1103 5.34535L55.5 1.14816V0.230347H40.2959L29.4609 27.1975L17.1375 0.230347H1.19437V1.1516L6.32313 7.32191C6.82156 7.77566 7.08625 8.44597 7.0175 9.11629V33.3678C7.17562 34.241 6.89031 35.1382 6.27844 35.7741L0.5 42.7728V43.6803H16.8728V42.7591L11.0978 35.7707C10.4722 35.1347 10.1766 34.2513 10.3038 33.3644V12.3888L24.6759 43.6907H26.3466L38.7044 12.3888V37.3244C38.7044 37.9844 38.7044 38.1185 38.2713 38.5482L33.8231 42.8485V43.7697H55.3934V42.8485L51.1069 38.6513C50.7322 38.3694 50.5363 37.8916 50.6153 37.4275V6.5691C50.5431 6.10503 50.7356 5.62722 51.1103 5.34535Z" fill="white"/>
</svg>
