<svg width="24" height="21" viewBox="0 0 24 21" fill="none" xmlns="http://www.w3.org/2000/svg">
<path d="M21.5139 1.60926L21.4369 1.41027C21.4347 1.40456 21.4304 1.39985 21.4248 1.3973L21.2337 1.30885C19.6607 0.58061 17.4418 0.400922 15.4786 0.321289H13.2675C13.2425 0.321289 13.2349 0.355675 13.2574 0.366661L17.7992 2.58603C17.8249 2.5985 17.8107 2.63736 17.7832 2.63003C15.7405 2.08632 13.677 1.81111 11.6394 1.81111C9.60829 1.81111 7.55146 2.08464 5.51509 2.62488C5.48739 2.63221 5.47332 2.59292 5.49932 2.58069L10.2006 0.366909C10.2233 0.356171 10.2159 0.321413 10.1908 0.321413H7.80016C5.83705 0.401046 3.61806 0.580734 2.04505 1.30898L1.85396 1.39743C1.84842 1.39997 1.84403 1.40463 1.84184 1.4104L1.76487 1.60939C0.155017 5.76708 -0.302434 12.8254 0.185405 17.2472L0.210981 17.4791L0.391964 17.6221C2.90685 19.6098 6.2696 20.6318 8.38507 20.9029L8.65861 20.938C8.74752 20.9494 8.83247 20.897 8.86389 20.8115L10.2408 17.0622C10.2837 16.9453 10.2106 16.8177 10.0897 16.7983L9.66717 16.7307C8.19391 16.4947 6.10658 15.8693 4.3426 14.2388C4.30497 14.204 4.34126 14.1414 4.38888 14.1594C4.53223 14.2137 4.69032 14.2767 4.85309 14.3415C5.25196 14.5003 5.66447 14.6645 5.93363 14.7297C7.82531 15.1881 9.7436 15.4206 11.6392 15.4206V15.3863H11.6432L11.6434 15.4206C13.5352 15.4206 15.4535 15.1882 17.345 14.7297C17.6142 14.6645 18.0267 14.5003 18.4257 14.3414C18.5883 14.2766 18.7464 14.2137 18.8896 14.1594C18.9373 14.1414 18.9736 14.2041 18.9359 14.2388C17.1779 15.8621 15.0879 16.4859 13.6114 16.7217L13.189 16.7891C13.068 16.8084 12.9948 16.9359 13.0377 17.0527L14.4148 20.8113C14.4462 20.8969 14.5312 20.9494 14.6201 20.9379L14.8939 20.9029C17.0092 20.6317 20.3717 19.6097 22.8867 17.6221L23.0677 17.479L23.0932 17.2471C23.5811 12.8254 23.1237 5.76702 21.5139 1.60926ZM7.14547 11.8171C5.43532 11.9725 4.00859 10.5184 4.16089 8.77539C4.27769 7.43925 5.33326 6.36324 6.64423 6.24407C8.35438 6.08865 9.78111 7.54272 9.62881 9.28578C9.51195 10.6219 8.45638 11.6979 7.14547 11.8171ZM16.6347 11.8171C14.9245 11.9725 13.4978 10.5184 13.6501 8.77539C13.7669 7.43925 14.8225 6.36324 16.1334 6.24407C17.8435 6.08865 19.2703 7.54272 19.118 9.28578C19.0012 10.6219 17.9456 11.6979 16.6347 11.8171Z" fill="#FFB803"/>
</svg>
