<svg width="615" height="303" viewBox="0 0 615 303" fill="none" xmlns="http://www.w3.org/2000/svg">
<path fill-rule="evenodd" clip-rule="evenodd" d="M413.15 131.517L395.403 149.826L372.036 151.212L362.184 159.066L356.199 160.399L350.917 164.838L341.989 168.275L332.181 196.703L321.008 200.545L317.275 201.348L266.271 212.075L212.58 208.875L201.629 205.196L180.337 184.284L164.747 189.366L147.731 184.778L137.834 183.776L134.211 171.565L123.752 167.514L64.5976 134.383L63.5673 124.374L54.8442 116.747L48.4801 94.6494L413.148 131.559L413.15 131.517Z" fill="url(#paint0_linear_380_851)"/>
<path opacity="0.5" fill-rule="evenodd" clip-rule="evenodd" d="M56.8577 116.578L70.0653 119.739L120.984 110.138L131.808 102.815L157.832 105.457L123.623 118.278L65.5844 124.236L56.8577 116.578Z" fill="url(#paint1_linear_380_851)"/>
<path opacity="0.5" fill-rule="evenodd" clip-rule="evenodd" d="M65.3303 138.279L79.4637 143.902L144.531 150.626L134.78 163.97L135.189 176.499L124.691 172.379L65.3303 138.279Z" fill="url(#paint2_linear_380_851)"/>
<path opacity="0.5" fill-rule="evenodd" clip-rule="evenodd" d="M137.088 187.361L151.517 182.809L181.66 179.754L238.228 162.689L208.111 179.406L222.102 192.296L266.039 216.51L212.135 213.232L201.14 209.439L179.759 187.866L164.108 193.118L147.024 188.39L137.088 187.361Z" fill="url(#paint3_linear_380_851)"/>
<path opacity="0.7" fill-rule="evenodd" clip-rule="evenodd" d="M395.537 145.179L371.983 146.653L362.055 154.917L356.023 156.323L350.7 160.993L341.702 164.613L331.828 194.505L316.804 199.398L311.055 198.796L300.512 172.745L291.025 127.886L265.533 142.404L257.705 149.648L245.418 154.208L255.591 147.875L262.548 140.895L276.832 111.643L316.976 115.852L334.48 138.999L348.906 143.968L395.537 145.179Z" fill="url(#paint4_linear_380_851)"/>
<path opacity="0.5" fill-rule="evenodd" clip-rule="evenodd" d="M137.527 189.124L151.929 184.632L182.015 181.621L180.114 189.673L164.495 194.813L147.444 190.142L137.527 189.124Z" fill="url(#paint5_linear_380_851)"/>
<path opacity="0.5" fill-rule="evenodd" clip-rule="evenodd" d="M79.1993 145.942L79.3008 143.777L125.53 148.567L144.41 150.524L134.654 163.919L135.063 176.496L124.558 172.361L79.1993 145.942Z" fill="url(#paint6_linear_380_851)"/>
<path opacity="0.5" fill-rule="evenodd" clip-rule="evenodd" d="M70.0544 119.204L103.793 119.753L123.64 117.716L157.835 104.953L131.822 102.321L121 109.654L70.0544 119.204Z" fill="url(#paint7_linear_380_851)"/>
<path opacity="0.5" fill-rule="evenodd" clip-rule="evenodd" d="M221.289 192.662L200.366 209.604L211.338 213.346L265.13 216.589L221.289 192.662Z" fill="url(#paint8_linear_380_851)"/>
<path opacity="0.5" fill-rule="evenodd" clip-rule="evenodd" d="M278.006 111.006L318.2 115.231L299.452 122.78L292.261 127.407L266.739 141.986L263.751 140.426L278.006 111.006Z" fill="url(#paint9_linear_380_851)"/>
<path opacity="0.5" fill-rule="evenodd" clip-rule="evenodd" d="M341.659 163.828L312.312 159.007L294.222 141.847L324.486 155.228L350.597 160.315L341.659 163.828Z" fill="url(#paint10_linear_380_851)"/>
<path opacity="0.5" fill-rule="evenodd" clip-rule="evenodd" d="M355.649 154.57L340.348 151.825L361.606 153.365L355.649 154.57Z" fill="url(#paint11_linear_380_851)"/>
<path opacity="0.5" fill-rule="evenodd" clip-rule="evenodd" d="M371.652 143.694L357.599 145.312L348.751 141.208L394.938 142.412L371.652 143.694Z" fill="url(#paint12_linear_380_851)"/>
<path opacity="0.5" fill-rule="evenodd" clip-rule="evenodd" d="M182.015 178.254L208.468 177.905L238.588 161.181L182.015 178.254Z" fill="url(#paint13_linear_380_851)"/>
<path opacity="0.2" fill-rule="evenodd" clip-rule="evenodd" d="M137.836 188.373L134.08 175.042L133.655 161.741L143.711 147.572L156.372 103.026L191.505 106.564L159.135 146.859L156.483 163.147L152.761 183.556L137.836 188.373Z" fill="#95552F"/>
<path opacity="0.5" fill-rule="evenodd" clip-rule="evenodd" d="M191.505 105.825L184.626 158.924L183.651 180.101L152.048 183.361L158.534 146.4L191.505 105.825Z" fill="url(#paint14_linear_380_851)"/>
<path opacity="0.3" fill-rule="evenodd" clip-rule="evenodd" d="M65.0914 126.218L123.422 119.974L105.958 141.258L80.2933 142.312L66.1309 136.629L65.0914 126.218Z" fill="#C57539"/>
<path fill-rule="evenodd" clip-rule="evenodd" d="M183.52 191.907L186.144 180.005L193.445 179.32L208.769 179.167L186.176 178.229L182.08 173.415L183.019 156.955L179.776 179.329L178.002 179.962L179.864 188.097L183.52 191.907Z" fill="#290E18"/>
<path fill-rule="evenodd" clip-rule="evenodd" d="M312.365 114.274L300.076 119.678L286.626 128.542L272.099 138.081L302.053 121.15L319.697 117.219L337.687 117.078L312.365 114.274Z" fill="#290E18"/>
<path opacity="0.2" fill-rule="evenodd" clip-rule="evenodd" d="M66.175 134.554L113.05 131.114L146.672 139.484L165.874 138.113L186.117 142.425L266.67 139.798L274.245 142.418L272.155 143.544L266.275 140.931L185.664 144.576L165.175 138.817L146.067 141L110.58 133.12L73.1061 136.896L66.175 134.554Z" fill="#D9772F"/>
<path fill-rule="evenodd" clip-rule="evenodd" d="M163.65 141.517L157.635 156.545L156.215 148.472L163.65 141.517Z" fill="#77342D"/>
<path opacity="0.5" fill-rule="evenodd" clip-rule="evenodd" d="M299.91 175.108L282.341 210.268L310.672 202.002L299.91 175.108Z" fill="url(#paint15_linear_380_851)"/>
<path opacity="0.3" fill-rule="evenodd" clip-rule="evenodd" d="M134.111 159.747L156.057 160.997L183.024 165.268L236.005 160.999L297.033 160.452L339.32 173.354L336.81 179.633L299.324 170.303L224.063 167.349L218.603 165.468L181.531 167.567L155.886 163.267L134.264 165.59L134.111 159.747Z" fill="url(#paint16_linear_380_851)"/>
<path opacity="0.2" fill-rule="evenodd" clip-rule="evenodd" d="M323.557 201.852L305.928 193.697L291.193 195.054L228.429 195.427L207.301 210.372L211.308 211.651L231.559 197.202L290.462 196.441L306.682 195.692L319.65 203.379L323.557 201.852Z" fill="#D9772F"/>
<path fill-rule="evenodd" clip-rule="evenodd" d="M51.2065 94.6074L413.338 122.731C413.338 122.731 331.457 121.345 224.763 113.059C118.023 104.77 51.2065 94.6074 51.2065 94.6074Z" fill="#FC8395"/>
<path opacity="0.3" fill-rule="evenodd" clip-rule="evenodd" d="M134.299 161.292L156.625 148.087L186.517 113.143L154.924 109.791L145.72 142.057L134.299 161.292Z" fill="#C57539"/>
<g opacity="0.6">
<path opacity="0.6" fill-rule="evenodd" clip-rule="evenodd" d="M413.151 135.338L395.518 152.684L372.133 153.681L362.327 161.09L356.345 162.285L351.089 166.477L342.176 169.653L332.568 196.841L321.409 200.375L317.678 201.092L266.692 210.672L212.912 206.823L201.92 203.128L180.447 182.718L164.875 187.379L147.805 182.723L137.889 181.618L134.17 169.827L123.668 165.781L64.1958 133.079L63.0899 123.441L54.2995 115.984L47.7634 94.6477L413.149 135.378L413.151 135.338Z" fill="url(#paint17_linear_380_851)"/>
</g>
<path fill-rule="evenodd" clip-rule="evenodd" d="M314.693 148.254C314.693 148.254 311.062 162.159 311.736 166.793C312.407 171.474 324.489 191.098 324.489 191.098L345.163 191.488L340.741 134.233C340.592 134.263 320.513 143.477 314.693 148.254Z" fill="url(#paint18_linear_380_851)"/>
<path opacity="0.8" fill-rule="evenodd" clip-rule="evenodd" d="M312.949 155.844C312.949 155.844 305.109 175.663 306.661 191.773C306.896 194.083 310.055 200.449 310.055 200.449L313.987 201.506L331.171 196.156L332.585 191.737L344.32 192.023C344.32 192.023 330.353 187.434 324.926 168.994L311.302 167.548L312.949 155.844Z" fill="url(#paint19_linear_380_851)"/>
<path fill-rule="evenodd" clip-rule="evenodd" d="M341.821 133.923C338.855 133.608 331.476 139.026 329.335 144.219C327.194 149.411 324.601 160.251 324.95 167.636C325.299 175.021 334.959 189.319 336.834 189.977C338.708 190.681 352.456 191.312 355.881 189.057C360.919 185.687 365.635 158.217 364.479 149.231C363.273 140.285 343.912 134.144 341.821 133.923Z" fill="url(#paint20_linear_380_851)"/>
<path opacity="0.8" fill-rule="evenodd" clip-rule="evenodd" d="M360.02 156.573C359.64 164.915 357.225 175.942 355.63 179.734C353.108 185.546 343.73 187.823 339.822 185.29C335.913 182.758 328.602 166.556 330.007 158.323C330.246 157.381 330.439 156.388 330.686 155.263C332.45 147.759 336.131 139.122 341.794 137.603C344.972 136.789 355.57 142.194 358.838 146.961C360.026 148.883 360.205 152.494 360.02 156.573Z" fill="url(#paint21_linear_380_851)"/>
<path opacity="0.8" fill-rule="evenodd" clip-rule="evenodd" d="M360.031 156.145C360.031 156.145 343.138 151.29 334.45 160.519L331.094 155.022C332.823 147.673 336.428 139.215 341.976 137.727C345.089 136.929 355.472 142.222 358.673 146.891C360.037 148.613 360.213 152.15 360.031 156.145Z" fill="url(#paint22_linear_380_851)"/>
<path fill-rule="evenodd" clip-rule="evenodd" d="M332.208 151.009C332.208 151.009 343.876 160.836 336.245 180.763C336.245 180.763 330.757 170.088 329.772 164.026C328.831 158.108 332.208 151.009 332.208 151.009Z" fill="white"/>
<path fill-rule="evenodd" clip-rule="evenodd" d="M209.936 178.283L184.089 185.335C184.089 185.335 179.175 191.896 177.704 197.829C176.041 203.742 187.645 220.259 192.306 223.459C196.775 226.683 211.046 225.757 214.21 223.837C217.374 221.917 236.073 206.08 236.073 206.08C236.073 206.08 233.017 190.828 230.252 187.153C224.91 179.868 209.936 178.283 209.936 178.283Z" fill="url(#paint23_linear_380_851)"/>
<path fill-rule="evenodd" clip-rule="evenodd" d="M184.131 185.617C186.454 183.452 208.217 190.948 212.027 194.401C215.834 197.9 214.944 225.019 213.726 225.209C212.508 225.398 200.684 228.057 194.089 225.219C187.493 222.426 177.388 205.289 177.622 200.126C177.678 194.626 181.953 187.798 184.131 185.617Z" fill="url(#paint24_linear_380_851)"/>
<path opacity="0.8" fill-rule="evenodd" clip-rule="evenodd" d="M208.608 220.515C206.904 223.892 198.921 224.686 195.563 222.871C193.059 221.465 185.905 211.448 182.543 205.436C181.611 203.559 180.808 202.014 180.837 201.379C180.776 198.454 183.431 190.116 185.542 189.519C189.369 188.466 203.52 192.704 207.204 195.877C208.043 196.604 208.659 197.992 209.117 199.637C210.616 206.135 209.937 217.92 208.608 220.515Z" fill="url(#paint25_linear_380_851)"/>
<path opacity="0.8" fill-rule="evenodd" clip-rule="evenodd" d="M209.061 199.484L207.034 203.046C199.44 197.808 182.912 205.088 182.912 205.088C181.993 203.259 181.202 201.755 181.23 201.136C181.17 198.288 183.789 190.169 185.869 189.588C189.642 188.563 203.593 192.692 207.224 195.783C208.008 196.398 208.617 197.705 209.061 199.484Z" fill="url(#paint26_linear_380_851)"/>
<path fill-rule="evenodd" clip-rule="evenodd" d="M201.375 192.299C201.375 192.299 202.742 204.437 209.716 209.095C209.716 209.095 209.493 198.877 207.693 196.242C206.181 193.776 201.375 192.299 201.375 192.299Z" fill="white"/>
<path opacity="0.8" fill-rule="evenodd" clip-rule="evenodd" d="M211.096 192.75L230.737 188.035C230.737 188.035 228.936 182.044 218.085 178.946C218.085 178.946 228.146 180.329 236.229 188.118C244.312 195.907 257.789 216.547 257.789 216.547L223.844 214.58L213.498 222.682C213.546 222.687 215.846 205.985 211.096 192.75Z" fill="url(#paint27_linear_380_851)"/>
<path fill-rule="evenodd" clip-rule="evenodd" d="M89.5492 95.7943C89.5492 95.7943 75.9147 74.2272 75.1138 72.4885C74.1671 70.7343 70.924 22.6594 70.924 22.6594C70.924 22.6594 80.5512 9.76034 82.5549 8.68647C84.51 7.60743 116.737 42.7224 118.01 44.8327C119.331 46.9482 126.516 99.7134 126.516 99.7134L89.5492 95.7943Z" fill="url(#paint28_radial_380_851)"/>
<path fill-rule="evenodd" clip-rule="evenodd" d="M71.9064 22.4975C71.9064 22.4975 84.6418 49.5721 87.6309 51.8435C90.62 54.1148 101.929 59.3592 106.438 59.0193C110.76 58.5233 114.64 57.1169 115.581 54.4897C116.571 51.8224 118.452 44.432 118.452 44.432C118.452 44.432 85.9968 7.94866 83.4034 8.67346C80.7639 9.34794 71.9064 22.4975 71.9064 22.4975Z" fill="#ABFFED"/>
<g opacity="0.5">
<path opacity="0.5" fill-rule="evenodd" clip-rule="evenodd" d="M71.6029 22.2221C71.6029 22.2221 84.7048 49.0843 87.7406 51.377C90.7765 53.6697 102.23 59.0535 106.773 58.8115C111.127 58.4124 115.026 57.1098 115.949 54.5476C116.922 51.9471 118.747 44.724 118.747 44.724C118.747 44.724 85.6706 8.21464 83.0625 8.87386C80.4076 9.48269 71.6029 22.2221 71.6029 22.2221Z" fill="url(#paint29_radial_380_851)"/>
</g>
<path fill-rule="evenodd" clip-rule="evenodd" d="M114.8 73.9583C114.8 73.9583 121.52 86.2223 123.846 87.4322C126.174 88.5983 138.097 91.425 141.123 91.9166C144.149 92.4082 162.535 91.4688 162.535 91.4688C162.535 91.4688 135.568 68.9149 130.735 67.3116C128.061 66.417 114.8 73.9583 114.8 73.9583Z" fill="#ABFFED"/>
<path fill-rule="evenodd" clip-rule="evenodd" d="M87.9967 53.0963L75.8966 73.5059C75.8966 73.5059 71.7839 38.2889 71.5845 23.0601L87.9967 53.0963Z" fill="#ABFFED"/>
<g opacity="0.5">
<path opacity="0.5" fill-rule="evenodd" clip-rule="evenodd" d="M109.927 98.7432L103.467 60.8089L86.2695 53.4215L74.5137 72.9178L89.4155 96.0712L109.927 98.7432Z" fill="url(#paint30_radial_380_851)"/>
</g>
<g opacity="0.5">
<path opacity="0.5" fill-rule="evenodd" clip-rule="evenodd" d="M113.236 54.2127L125.947 97.0349L116.29 43.9777C116.29 43.9777 114.249 52.6585 113.236 54.2127Z" fill="url(#paint31_linear_380_851)"/>
</g>
<path fill-rule="evenodd" clip-rule="evenodd" d="M95.7175 57.4043L108.181 59.1707L104.094 63.2183L95.7175 57.4043Z" fill="#ABFFED"/>
<path fill-rule="evenodd" clip-rule="evenodd" d="M78.8225 35.7529L112.443 41.946L114.039 40.3186L117.718 43.8362L112.412 42.5229L80.4214 36.7158L79.5542 37.0591L78.8225 35.7529Z" fill="#ABFFED"/>
<path fill-rule="evenodd" clip-rule="evenodd" d="M166.073 102.725C166.073 102.725 163.227 94.0642 162.474 91.7729C161.578 89.4667 132.275 67.8128 130.621 67.4626C128.92 67.1073 116.245 72.9034 114.661 74.1534C113.076 75.4033 108.375 96.6364 108.375 96.6364L166.075 102.681L166.073 102.725Z" fill="url(#paint32_radial_380_851)"/>
<g opacity="0.5">
<path opacity="0.5" fill-rule="evenodd" clip-rule="evenodd" d="M114.668 73.7021C114.668 73.7021 121.519 85.7194 123.864 86.9351C126.21 88.1084 138.197 91.0662 141.237 91.5979C144.278 92.1295 162.716 91.5515 162.716 91.5515C162.716 91.5515 135.46 69.1864 130.597 67.5436C127.906 66.6275 114.668 73.7021 114.668 73.7021Z" fill="url(#paint33_radial_380_851)"/>
</g>
<path fill-rule="evenodd" clip-rule="evenodd" d="M124.132 88.8709L120.855 99.5212L108.323 98.1935L114.775 74.8116C114.826 74.771 121.964 86.9847 124.132 88.8709Z" fill="#ABFFED"/>
<g opacity="0.5">
<path opacity="0.5" fill-rule="evenodd" clip-rule="evenodd" d="M140.513 92.2908L147.82 100.46L165.576 102.537L161.891 92.06C161.74 92.2525 145.937 92.6312 140.513 92.2908Z" fill="url(#paint34_linear_380_851)"/>
</g>
<path fill-rule="evenodd" clip-rule="evenodd" d="M136.245 91.835L145.454 92.7376L141.85 93.9725L136.245 91.835Z" fill="#ABFFED"/>
<path fill-rule="evenodd" clip-rule="evenodd" d="M268.681 105.841C268.681 105.841 282.039 99.1236 287.218 97.2963C292.395 95.5126 313.091 98.8945 313.091 98.8945C313.091 98.8945 344.815 65.8223 351.763 62.8205C358.71 59.8187 386.556 63.0247 388.693 64.1675C390.836 65.1795 386.187 118.031 386.187 118.031L268.683 105.797L268.681 105.841Z" fill="url(#paint35_linear_380_851)"/>
<path opacity="0.8" fill-rule="evenodd" clip-rule="evenodd" d="M388.631 61.1332C388.631 61.1332 370.538 80.3541 369.565 82.0583C368.591 83.7626 360.917 115.477 360.917 115.477L384.034 117.91C384.092 117.73 390.685 82.4745 388.631 61.1332Z" fill="url(#paint36_linear_380_851)"/>
<path opacity="0.8" fill-rule="evenodd" clip-rule="evenodd" d="M306.648 100.536L302.182 105.393L288.592 108.682L288.513 110.389L304.067 112.012L312.893 101.496L306.648 100.536Z" fill="url(#paint37_linear_380_851)"/>
<path fill-rule="evenodd" clip-rule="evenodd" d="M407.259 119.512C407.259 119.512 400.544 100.301 398.715 98.7134C396.933 97.1311 383.117 95.5215 379.966 96.7662C376.673 97.9962 358.966 114.496 358.966 114.496L407.259 119.512Z" fill="url(#paint38_linear_380_851)"/>
<path opacity="0.8" fill-rule="evenodd" clip-rule="evenodd" d="M398.463 97.9105C398.463 97.9105 399.726 101.156 399.475 102.41C399.215 103.847 390.919 110.973 390.919 110.973L390.603 117.94L407.151 119.696C407.208 119.519 400.426 100.727 398.463 97.9105Z" fill="url(#paint39_linear_380_851)"/>
<path fill-rule="evenodd" clip-rule="evenodd" d="M370.468 82.0737C365.901 84.9087 358.819 87.4804 352.857 87.4749C346.752 87.4545 331.751 83.8527 331.188 81.5852C330.625 79.3176 346.821 63.2553 351.705 60.7627C356.59 58.2702 380.13 59.806 388.704 62.1168L370.468 82.0737Z" fill="#ABA7B5"/>
<path fill-rule="evenodd" clip-rule="evenodd" d="M289.188 99.8887C285.1 100.069 276.071 105.392 275.893 106.144C275.668 106.891 287.417 109.164 288.761 108.83C290.152 108.502 301.186 106.893 302.431 105.651C303.676 104.41 306.877 100.929 306.877 100.929C306.877 100.929 296.319 99.549 289.188 99.8887Z" fill="#ABA7B5"/>
<path fill-rule="evenodd" clip-rule="evenodd" d="M367.234 106.896C367.234 106.896 384.946 112.943 389.813 110.647C394.68 108.351 399.805 103.586 399.878 102.017C399.762 100.429 399.339 99.2899 398.183 98.5566C397.027 97.8233 385.268 95.8114 380.797 96.7475C376.135 97.7074 367.234 106.896 367.234 106.896Z" fill="#ABA7B5"/>
<path opacity="0.2" fill-rule="evenodd" clip-rule="evenodd" d="M331.472 79.3857C331.472 79.3857 339.814 67.9294 352.137 66.099C364.46 64.2685 375.12 64.414 376.274 65.1922C377.247 65.776 373.571 79.2974 366.854 81.4048C360.129 83.6869 344.585 82.0676 342.867 79.0815C341.149 76.0953 348.372 70.2684 352.343 68.8399C356.316 67.3677 365.772 68.8352 366.906 70.0499C368.04 71.2646 365.938 76.5284 364.055 77.0779C361.981 77.6514 352.559 76.4944 352.454 74.6413C352.352 72.7445 354.137 71.2199 354.137 71.2199L357.51 71.3958C357.51 71.3958 355.421 72.2748 355.206 73.8314C354.944 75.3831 361.488 76.986 363.758 76.3013C365.98 75.6117 366.529 70.9756 364.703 70.303C362.884 69.4993 356.107 68.7934 352.488 69.8199C348.869 70.8465 344.508 77.5856 345.115 78.877C345.721 80.1683 360.866 83.1935 367.318 79.611C373.911 76.087 373.327 67.1222 371.833 66.484C370.487 65.7297 356.487 64.7099 347.124 68.4278C337.808 72.1506 331.586 81.0205 331.586 81.0205L331.472 79.3857Z" fill="url(#paint40_linear_380_851)"/>
<path fill-rule="evenodd" clip-rule="evenodd" d="M356.396 87.5549L368.09 89.7309L373.548 78.3336C373.405 78.3184 363.015 85.3835 356.396 87.5549Z" fill="#8B6F8B"/>
<path fill-rule="evenodd" clip-rule="evenodd" d="M382.86 111.196L391.07 114.41L395.096 107.864C395.096 107.864 390.714 110.733 382.86 111.196Z" fill="#8B6F8B"/>
<path opacity="0.2" fill-rule="evenodd" clip-rule="evenodd" d="M356.122 88.7706L337.635 113.767L361.581 116.124L363.476 112.61L367.88 90.9681L356.122 88.7706Z" fill="url(#paint41_linear_380_851)"/>
<g opacity="0.5">
<path opacity="0.5" d="M199.66 241.504C223.671 244.463 243.786 229.08 244.593 207.184C245.401 185.243 226.593 165.106 202.582 162.147C178.571 159.187 158.456 174.57 157.65 196.467C156.795 218.357 175.649 238.544 199.66 241.504Z" fill="url(#paint42_radial_380_851)"/>
</g>
<g opacity="0.5">
<path opacity="0.5" d="M335.444 200.259C358.294 203.076 377.46 188.418 378.229 167.538C378.998 146.658 361.08 127.43 338.23 124.613C315.38 121.796 296.215 136.454 295.446 157.334C294.677 178.214 312.546 197.436 335.444 200.259Z" fill="url(#paint43_radial_380_851)"/>
</g>
<g opacity="0.5">
<path opacity="0.5" fill-rule="evenodd" clip-rule="evenodd" d="M205.856 206.396C205.856 206.396 186.765 211.644 150.214 203.504C113.617 195.322 43.1403 183.848 11.7494 186.198C-19.6416 188.549 87.12 236.849 181.55 247.507C275.795 258.11 257.793 236.085 334.873 233.957C411.953 231.829 487.656 253.431 507.09 248.846C526.334 244.278 486.76 228.963 437.376 221.795C437.376 221.795 471.67 228.014 479.674 235.526C487.672 243.148 383.087 220.995 325.081 221.832C267.03 222.627 246.908 247.68 188.814 242.959C130.72 238.237 182.473 219.811 190.109 218.074C197.747 216.301 208.792 211.602 208.792 211.602L205.856 206.396Z" fill="url(#paint44_linear_380_851)"/>
</g>
<g opacity="0.5">
<path opacity="0.5" fill-rule="evenodd" clip-rule="evenodd" d="M332.352 153.53C332.352 153.53 365.104 128.473 403.152 134.144C441.248 139.82 423.423 168.481 489.562 180.293C555.516 191.96 612.712 223.463 618.589 236.638C624.466 249.812 570.926 245.011 570.926 245.011C570.926 245.011 607.983 238.974 579.89 221.361C551.797 203.749 536.72 195.712 469.058 179.311C401.439 163.038 334.27 168.15 334.27 168.15L332.352 153.53Z" fill="url(#paint45_linear_380_851)"/>
</g>
<defs>
<linearGradient id="paint0_linear_380_851" x1="226.098" y1="210.272" x2="235.886" y2="113.567" gradientUnits="userSpaceOnUse">
<stop stop-color="#65337C"/>
<stop offset="0.2838" stop-color="#752E32"/>
<stop offset="1" stop-color="#4A2232"/>
</linearGradient>
<linearGradient id="paint1_linear_380_851" x1="57.1888" y1="109.301" x2="157.556" y2="114.144" gradientUnits="userSpaceOnUse">
<stop stop-color="#C77CBD"/>
<stop offset="1" stop-color="#974577"/>
</linearGradient>
<linearGradient id="paint2_linear_380_851" x1="64.6101" y1="153.726" x2="144.207" y2="157.469" gradientUnits="userSpaceOnUse">
<stop stop-color="#C77CBD"/>
<stop offset="1" stop-color="#974577"/>
</linearGradient>
<linearGradient id="paint3_linear_380_851" x1="137.484" y1="178.888" x2="267.515" y2="184.982" gradientUnits="userSpaceOnUse">
<stop stop-color="#C77CBD"/>
<stop offset="1" stop-color="#974577"/>
</linearGradient>
<linearGradient id="paint4_linear_380_851" x1="245.553" y1="150.116" x2="394.972" y2="156.998" gradientUnits="userSpaceOnUse">
<stop stop-color="#C77CBD"/>
<stop offset="1" stop-color="#974577"/>
</linearGradient>
<linearGradient id="paint5_linear_380_851" x1="137.742" y1="184.562" x2="181.85" y2="186.657" gradientUnits="userSpaceOnUse">
<stop stop-color="#C77CBD"/>
<stop offset="1" stop-color="#974577"/>
</linearGradient>
<linearGradient id="paint6_linear_380_851" x1="78.6764" y1="157.207" x2="143.951" y2="160.265" gradientUnits="userSpaceOnUse">
<stop stop-color="#C77CBD"/>
<stop offset="1" stop-color="#974577"/>
</linearGradient>
<linearGradient id="paint7_linear_380_851" x1="70.6195" y1="107.695" x2="157.676" y2="111.917" gradientUnits="userSpaceOnUse">
<stop stop-color="#C77CBD"/>
<stop offset="1" stop-color="#974577"/>
</linearGradient>
<linearGradient id="paint8_linear_380_851" x1="200.742" y1="201.402" x2="265.595" y2="204.487" gradientUnits="userSpaceOnUse">
<stop stop-color="#C77CBD"/>
<stop offset="1" stop-color="#974577"/>
</linearGradient>
<linearGradient id="paint9_linear_380_851" x1="264.365" y1="125.641" x2="317.577" y2="128.083" gradientUnits="userSpaceOnUse">
<stop stop-color="#C77CBD"/>
<stop offset="1" stop-color="#974577"/>
</linearGradient>
<linearGradient id="paint10_linear_380_851" x1="293.815" y1="150.394" x2="350.894" y2="153.132" gradientUnits="userSpaceOnUse">
<stop stop-color="#C77CBD"/>
<stop offset="1" stop-color="#974577"/>
</linearGradient>
<linearGradient id="paint11_linear_380_851" x1="340.273" y1="152.307" x2="361.615" y2="153.501" gradientUnits="userSpaceOnUse">
<stop stop-color="#C77CBD"/>
<stop offset="1" stop-color="#974577"/>
</linearGradient>
<linearGradient id="paint12_linear_380_851" x1="348.721" y1="141.197" x2="394.927" y2="143.599" gradientUnits="userSpaceOnUse">
<stop stop-color="#C77CBD"/>
<stop offset="1" stop-color="#974577"/>
</linearGradient>
<linearGradient id="paint13_linear_380_851" x1="182.562" y1="166.836" x2="238.134" y2="169.44" gradientUnits="userSpaceOnUse">
<stop stop-color="#C77CBD"/>
<stop offset="1" stop-color="#974577"/>
</linearGradient>
<linearGradient id="paint14_linear_380_851" x1="154.02" y1="142.727" x2="189.795" y2="144.373" gradientUnits="userSpaceOnUse">
<stop stop-color="#C77CBD"/>
<stop offset="1" stop-color="#974577"/>
</linearGradient>
<linearGradient id="paint15_linear_380_851" x1="283.085" y1="191.854" x2="311.02" y2="193.12" gradientUnits="userSpaceOnUse">
<stop stop-color="#C77CBD"/>
<stop offset="1" stop-color="#974577"/>
</linearGradient>
<linearGradient id="paint16_linear_380_851" x1="134.368" y1="155.447" x2="339.753" y2="166.638" gradientUnits="userSpaceOnUse">
<stop stop-color="#C77CBD"/>
<stop offset="1" stop-color="#974577"/>
</linearGradient>
<linearGradient id="paint17_linear_380_851" x1="226.457" y1="208.36" x2="236.789" y2="115.67" gradientUnits="userSpaceOnUse">
<stop stop-color="#3D56FF"/>
<stop offset="1"/>
</linearGradient>
<linearGradient id="paint18_linear_380_851" x1="327.813" y1="191.495" x2="333.945" y2="133.555" gradientUnits="userSpaceOnUse">
<stop stop-color="#610A83"/>
<stop offset="1" stop-color="#FFBFED"/>
</linearGradient>
<linearGradient id="paint19_linear_380_851" x1="306.745" y1="177.968" x2="345.017" y2="179.702" gradientUnits="userSpaceOnUse">
<stop stop-color="#C77CBD"/>
<stop offset="1" stop-color="#974577"/>
</linearGradient>
<linearGradient id="paint20_linear_380_851" x1="343.357" y1="190.796" x2="349.303" y2="134.711" gradientUnits="userSpaceOnUse">
<stop stop-color="#470760"/>
<stop offset="1" stop-color="#A210DA"/>
</linearGradient>
<linearGradient id="paint21_linear_380_851" x1="343.655" y1="186.429" x2="348.735" y2="138.462" gradientUnits="userSpaceOnUse">
<stop stop-color="#C77CBD"/>
<stop offset="1" stop-color="#974577"/>
</linearGradient>
<linearGradient id="paint22_linear_380_851" x1="331.458" y1="148.295" x2="360.357" y2="149.609" gradientUnits="userSpaceOnUse">
<stop stop-color="#C77CBD"/>
<stop offset="1" stop-color="#974577"/>
</linearGradient>
<linearGradient id="paint23_linear_380_851" x1="205.727" y1="225.992" x2="210.77" y2="178.335" gradientUnits="userSpaceOnUse">
<stop stop-color="#610A83"/>
<stop offset="1" stop-color="#FFBFED"/>
</linearGradient>
<linearGradient id="paint24_linear_380_851" x1="195.339" y1="226.06" x2="199.516" y2="186.688" gradientUnits="userSpaceOnUse">
<stop stop-color="#800DAD"/>
<stop offset="1" stop-color="#BD13FF"/>
</linearGradient>
<linearGradient id="paint25_linear_380_851" x1="194.583" y1="223.375" x2="198.065" y2="190.562" gradientUnits="userSpaceOnUse">
<stop stop-color="#C77CBD"/>
<stop offset="1" stop-color="#974577"/>
</linearGradient>
<linearGradient id="paint26_linear_380_851" x1="181.421" y1="196.879" x2="209.055" y2="198.149" gradientUnits="userSpaceOnUse">
<stop stop-color="#C77CBD"/>
<stop offset="1" stop-color="#974577"/>
</linearGradient>
<linearGradient id="paint27_linear_380_851" x1="210.76" y1="200.288" x2="258.429" y2="202.451" gradientUnits="userSpaceOnUse">
<stop stop-color="#C77CBD"/>
<stop offset="1" stop-color="#974577"/>
</linearGradient>
<radialGradient id="paint28_radial_380_851" cx="0" cy="0" r="1" gradientUnits="userSpaceOnUse" gradientTransform="translate(93.4564 80.6687) rotate(6.05177) scale(52.5001 48.9805)">
<stop stop-color="#55DBD6"/>
<stop offset="1" stop-color="#0072CD"/>
</radialGradient>
<radialGradient id="paint29_radial_380_851" cx="0" cy="0" r="1" gradientUnits="userSpaceOnUse" gradientTransform="translate(95.1014 33.8976) rotate(7.03864) scale(24.9686 22.5776)">
<stop/>
<stop offset="1" stop-color="white"/>
</radialGradient>
<radialGradient id="paint30_radial_380_851" cx="0" cy="0" r="1" gradientUnits="userSpaceOnUse" gradientTransform="translate(91.2204 75.4753) rotate(7.05141) scale(16.936 22.5114)">
<stop offset="0.5838"/>
<stop offset="1" stop-color="white"/>
</radialGradient>
<linearGradient id="paint31_linear_380_851" x1="112.569" y1="69.5024" x2="127.022" y2="70.0904" gradientUnits="userSpaceOnUse">
<stop stop-color="#C77CBD"/>
<stop offset="1" stop-color="#974577"/>
</linearGradient>
<radialGradient id="paint32_radial_380_851" cx="0" cy="0" r="1" gradientUnits="userSpaceOnUse" gradientTransform="translate(133.219 93.5376) rotate(5.9805) scale(47.0443 43.3097)">
<stop stop-color="#55DBD6"/>
<stop offset="1" stop-color="#0072CD"/>
</radialGradient>
<radialGradient id="paint33_radial_380_851" cx="0" cy="0" r="1" gradientUnits="userSpaceOnUse" gradientTransform="translate(138.75 79.8871) rotate(6.77598) scale(19.5177 17.2)">
<stop/>
<stop offset="1" stop-color="white"/>
</radialGradient>
<linearGradient id="paint34_linear_380_851" x1="140.346" y1="94.605" x2="165.808" y2="95.6184" gradientUnits="userSpaceOnUse">
<stop stop-color="#C77CBD"/>
<stop offset="1" stop-color="#974577"/>
</linearGradient>
<linearGradient id="paint35_linear_380_851" x1="327.927" y1="111.948" x2="333.555" y2="57.8926" gradientUnits="userSpaceOnUse">
<stop stop-color="#633D4C"/>
<stop offset="1" stop-color="#685C5B"/>
</linearGradient>
<linearGradient id="paint36_linear_380_851" x1="374" y1="116.722" x2="379.948" y2="60.2065" gradientUnits="userSpaceOnUse">
<stop stop-color="#C77CBD"/>
<stop offset="1" stop-color="#974577"/>
</linearGradient>
<linearGradient id="paint37_linear_380_851" x1="300.419" y1="111.682" x2="301.631" y2="100.076" gradientUnits="userSpaceOnUse">
<stop stop-color="#C77CBD"/>
<stop offset="1" stop-color="#974577"/>
</linearGradient>
<linearGradient id="paint38_linear_380_851" x1="383.123" y1="117.076" x2="385.281" y2="96.2917" gradientUnits="userSpaceOnUse">
<stop stop-color="#633D4C"/>
<stop offset="1" stop-color="#685C5B"/>
</linearGradient>
<linearGradient id="paint39_linear_380_851" x1="398.925" y1="118.715" x2="401.113" y2="98.0943" gradientUnits="userSpaceOnUse">
<stop stop-color="#C77CBD"/>
<stop offset="1" stop-color="#974577"/>
</linearGradient>
<linearGradient id="paint40_linear_380_851" x1="353.427" y1="83.3533" x2="355.573" y2="62.7447" gradientUnits="userSpaceOnUse">
<stop stop-color="#C77CBD"/>
<stop offset="1" stop-color="#974577"/>
</linearGradient>
<linearGradient id="paint41_linear_380_851" x1="352.19" y1="115.202" x2="354.998" y2="88.7087" gradientUnits="userSpaceOnUse">
<stop stop-color="#C77CBD"/>
<stop offset="1" stop-color="#974577"/>
</linearGradient>
<radialGradient id="paint42_radial_380_851" cx="0" cy="0" r="1" gradientUnits="userSpaceOnUse" gradientTransform="translate(201.107 201.806) rotate(7.02721) scale(43.8118 39.5704)">
<stop stop-color="#FF0095"/>
<stop offset="1"/>
</radialGradient>
<radialGradient id="paint43_radial_380_851" cx="0" cy="0" r="1" gradientUnits="userSpaceOnUse" gradientTransform="translate(336.825 162.457) rotate(7.02725) scale(41.67 37.6369)">
<stop stop-color="#FF0095"/>
<stop offset="1"/>
</radialGradient>
<linearGradient id="paint44_linear_380_851" x1="5.29409" y1="205.115" x2="512.761" y2="231.524" gradientUnits="userSpaceOnUse">
<stop stop-color="#8459D6"/>
<stop offset="1"/>
</linearGradient>
<linearGradient id="paint45_linear_380_851" x1="331.594" y1="171.798" x2="621.325" y2="183.735" gradientUnits="userSpaceOnUse">
<stop stop-color="#8459D6"/>
<stop offset="1"/>
</linearGradient>
</defs>
</svg>
