<svg width="203" height="126" viewBox="0 0 203 126" fill="none" xmlns="http://www.w3.org/2000/svg">
<path fill-rule="evenodd" clip-rule="evenodd" d="M31.1695 54.4691L38.5423 62.0754L48.2501 62.6513L52.3432 65.9142L54.8294 66.468L57.0239 68.3121L60.7329 69.7403L64.8075 81.5502L69.4494 83.1466L71.0001 83.48L92.1892 87.9368L114.495 86.6073L119.044 85.0787L127.89 76.3913L134.367 78.5024L141.436 76.5962L145.547 76.1801L147.052 71.1073L151.398 69.4243L175.973 55.6603L176.401 51.502L180.025 48.3336L182.669 39.1532L31.1703 54.4865L31.1695 54.4691Z" fill="url(#paint0_linear_380_932)"/>
<path opacity="0.5" fill-rule="evenodd" clip-rule="evenodd" d="M179.188 48.2625L173.701 49.5756L152.547 45.5871L148.051 42.5447L137.239 43.6424L151.451 48.9687L175.563 51.4437L179.188 48.2625Z" fill="url(#paint1_linear_380_932)"/>
<path opacity="0.5" fill-rule="evenodd" clip-rule="evenodd" d="M175.668 57.2783L169.797 59.6143L142.765 62.4079L146.816 67.9514L146.646 73.1565L151.007 71.4449L175.668 57.2783Z" fill="url(#paint2_linear_380_932)"/>
<path opacity="0.5" fill-rule="evenodd" clip-rule="evenodd" d="M145.857 77.6695L139.863 75.7784L127.34 74.5093L103.84 67.4196L116.352 74.3645L110.539 79.7196L92.286 89.7789L114.68 88.4171L119.247 86.8415L128.13 77.8793L134.632 80.0612L141.73 78.097L145.857 77.6695Z" fill="url(#paint3_linear_380_932)"/>
<path opacity="0.7" fill-rule="evenodd" clip-rule="evenodd" d="M38.4869 60.1455L48.2724 60.7578L52.3969 64.1909L54.9028 64.7749L57.1142 66.7151L60.8524 68.2192L64.9545 80.6374L71.196 82.6704L73.5842 82.4201L77.9644 71.5975L81.9053 52.9611L92.4958 58.9928L95.748 62.0019L100.853 63.8965L96.6264 61.2656L93.7362 58.3658L87.802 46.2133L71.1244 47.9618L63.8527 57.5781L57.8594 59.6422L38.4869 60.1455Z" fill="url(#paint4_linear_380_932)"/>
<path opacity="0.5" fill-rule="evenodd" clip-rule="evenodd" d="M145.675 78.4007L139.692 76.5347L127.193 75.2839L127.982 78.6288L134.471 80.7641L141.555 78.8236L145.675 78.4007Z" fill="url(#paint5_linear_380_932)"/>
<path opacity="0.5" fill-rule="evenodd" clip-rule="evenodd" d="M169.906 60.4622L169.864 59.5625L150.659 61.5526L142.815 62.3654L146.868 67.9301L146.698 73.155L151.062 71.4371L169.906 60.4622Z" fill="url(#paint6_linear_380_932)"/>
<path opacity="0.5" fill-rule="evenodd" clip-rule="evenodd" d="M173.706 49.3537L159.689 49.5817L151.444 48.7354L137.238 43.4333L148.045 42.3397L152.541 45.3859L173.706 49.3537Z" fill="url(#paint7_linear_380_932)"/>
<path opacity="0.5" fill-rule="evenodd" clip-rule="evenodd" d="M110.877 79.8714L119.569 86.9099L115.011 88.4644L92.6635 89.8116L110.877 79.8714Z" fill="url(#paint8_linear_380_932)"/>
<path opacity="0.5" fill-rule="evenodd" clip-rule="evenodd" d="M87.3138 45.9484L70.6158 47.7033L78.4045 50.8398L81.3917 52.7621L91.995 58.8186L93.2361 58.1707L87.3138 45.9484Z" fill="url(#paint9_linear_380_932)"/>
<path opacity="0.5" fill-rule="evenodd" clip-rule="evenodd" d="M60.87 67.8922L73.062 65.8896L80.5773 58.7607L68.0045 64.3195L57.1569 66.4326L60.87 67.8922Z" fill="url(#paint10_linear_380_932)"/>
<path opacity="0.5" fill-rule="evenodd" clip-rule="evenodd" d="M55.0597 64.0522L61.4147 62.9073L52.585 63.545L55.0597 64.0522Z" fill="url(#paint11_linear_380_932)"/>
<path opacity="0.5" fill-rule="evenodd" clip-rule="evenodd" d="M48.4097 59.5281L54.248 60.2002L57.9238 58.4952L38.7358 58.9954L48.4097 59.5281Z" fill="url(#paint12_linear_380_932)"/>
<path opacity="0.5" fill-rule="evenodd" clip-rule="evenodd" d="M127.193 73.8853L116.203 73.7403L103.69 66.7925L127.193 73.8853Z" fill="url(#paint13_linear_380_932)"/>
<path opacity="0.2" fill-rule="evenodd" clip-rule="evenodd" d="M145.546 78.0891L147.107 72.5509L147.284 67.0254L143.106 61.139L137.846 42.6329L123.25 44.1024L136.698 60.8426L137.8 67.6093L139.346 76.0881L145.546 78.0891Z" fill="#95552F"/>
<path opacity="0.5" fill-rule="evenodd" clip-rule="evenodd" d="M123.25 43.7952L126.108 65.855L126.513 74.6525L139.642 76.0072L136.947 60.6518L123.25 43.7952Z" fill="url(#paint14_linear_380_932)"/>
<path opacity="0.3" fill-rule="evenodd" clip-rule="evenodd" d="M175.768 52.2675L151.535 49.6735L158.79 58.5154L169.452 58.9531L175.336 56.5922L175.768 52.2675Z" fill="#C57539"/>
<path fill-rule="evenodd" clip-rule="evenodd" d="M126.567 79.5577L125.477 74.6133L122.444 74.3287L116.078 74.2651L125.464 73.8756L127.166 71.8757L126.775 65.0376L128.123 74.3326L128.86 74.5955L128.086 77.9751L126.567 79.5577Z" fill="#290E18"/>
<path fill-rule="evenodd" clip-rule="evenodd" d="M73.0399 47.3052L78.1452 49.5504L83.7327 53.233L89.7681 57.1956L77.3239 50.1618L69.9939 48.5285L62.5201 48.4703L73.0399 47.3052Z" fill="#290E18"/>
<path opacity="0.2" fill-rule="evenodd" clip-rule="evenodd" d="M175.318 55.7309L155.844 54.302L141.876 57.7791L133.898 57.2093L125.489 59.0007L92.0236 57.9093L88.8767 58.9979L89.745 59.4659L92.1875 58.3802L125.677 59.8943L134.189 57.5018L142.127 58.409L156.87 55.1352L172.438 56.7042L175.318 55.7309Z" fill="#D9772F"/>
<path fill-rule="evenodd" clip-rule="evenodd" d="M134.829 58.6233L137.323 64.8709L137.911 61.5155L134.829 58.6233Z" fill="#77342D"/>
<path opacity="0.5" fill-rule="evenodd" clip-rule="evenodd" d="M78.2145 72.5786L85.5134 87.1855L73.7434 83.7513L78.2145 72.5786Z" fill="url(#paint15_linear_380_932)"/>
<path opacity="0.3" fill-rule="evenodd" clip-rule="evenodd" d="M147.094 66.1972L137.977 66.7164L126.774 68.4908L104.763 66.7169L79.4097 66.4896L61.8415 71.8495L62.8845 74.4582L78.4576 70.5824L109.724 69.3553L111.993 68.5737L127.394 69.4457L138.048 67.6593L147.03 68.6244L147.094 66.1972Z" fill="url(#paint16_linear_380_932)"/>
<path opacity="0.2" fill-rule="evenodd" clip-rule="evenodd" d="M68.3904 83.6894L75.7142 80.3014L81.836 80.8654L107.911 81.0203L116.688 87.2293L115.023 87.7605L106.61 81.7577L82.1394 81.4417L75.401 81.1304L70.0138 84.3239L68.3904 83.6894Z" fill="#D9772F"/>
<path fill-rule="evenodd" clip-rule="evenodd" d="M181.536 39.1357L31.0919 50.8192C31.0919 50.8192 65.1087 50.2437 109.434 46.8015C153.778 43.3577 181.536 39.1357 181.536 39.1357Z" fill="#FC8395"/>
<path opacity="0.3" fill-rule="evenodd" clip-rule="evenodd" d="M147.016 66.839L137.741 61.3529L125.322 46.8355L138.447 45.443L142.271 58.8479L147.016 66.839Z" fill="#C57539"/>
<g opacity="0.6">
<path opacity="0.6" fill-rule="evenodd" clip-rule="evenodd" d="M31.1695 56.0569L38.4948 63.2632L48.2101 63.6771L52.2838 66.7551L54.7689 67.2518L56.9524 68.9931L60.6553 70.3127L64.647 81.6078L69.2826 83.0758L70.8328 83.3739L92.0145 87.3537L114.357 85.7545L118.923 84.2195L127.844 75.7404L134.313 77.6768L141.405 75.7425L145.525 75.2833L147.069 70.3848L151.432 68.7043L176.14 55.1183L176.599 51.1145L180.251 48.0163L182.966 39.1525L31.1702 56.0736L31.1695 56.0569Z" fill="url(#paint17_linear_380_932)"/>
</g>
<path fill-rule="evenodd" clip-rule="evenodd" d="M72.0729 61.4231C72.0729 61.4231 73.5813 67.1997 73.3015 69.1251C73.0224 71.0695 68.0032 79.222 68.0032 79.222L59.4144 79.3841L61.2514 55.5981C61.3133 55.6107 69.6548 59.4386 72.0729 61.4231Z" fill="url(#paint18_linear_380_932)"/>
<path opacity="0.8" fill-rule="evenodd" clip-rule="evenodd" d="M72.7972 64.5752C72.7972 64.5752 76.0541 72.809 75.4095 79.5017C75.3118 80.4612 73.9997 83.1059 73.9997 83.1059L72.3659 83.545L65.2269 81.3225L64.6396 79.4868L59.7645 79.6055C59.7645 79.6055 65.567 77.6991 67.8215 70.0383L73.4813 69.4377L72.7972 64.5752Z" fill="url(#paint19_linear_380_932)"/>
<path fill-rule="evenodd" clip-rule="evenodd" d="M60.8028 55.4683C62.035 55.3377 65.1004 57.5885 65.9899 59.7456C66.8793 61.9027 67.9565 66.4059 67.8115 69.4741C67.6666 72.5422 63.6536 78.4819 62.8744 78.7553C62.0961 79.0477 56.3844 79.3098 54.9617 78.3731C52.8685 76.9732 50.9096 65.5612 51.3897 61.8278C51.8908 58.1113 59.9343 55.5604 60.8028 55.4683Z" fill="url(#paint20_linear_380_932)"/>
<path opacity="0.8" fill-rule="evenodd" clip-rule="evenodd" d="M53.2422 64.8784C53.3998 68.3438 54.4032 72.925 55.066 74.5002C56.1136 76.9147 60.0095 77.8606 61.6333 76.8086C63.2571 75.7565 66.2943 69.0256 65.7106 65.6053C65.6113 65.214 65.5314 64.8016 65.4286 64.3341C64.6956 61.2166 63.1665 57.6286 60.8139 56.9976C59.4938 56.6591 55.0906 58.9047 53.7333 60.8851C53.2396 61.6835 53.1651 63.1838 53.2422 64.8784Z" fill="url(#paint21_linear_380_932)"/>
<path opacity="0.8" fill-rule="evenodd" clip-rule="evenodd" d="M53.2373 64.7009C53.2373 64.7009 60.2554 62.6842 63.8648 66.518L65.2588 64.2346C64.5408 61.1816 63.043 57.6677 60.7381 57.0497C59.4449 56.7181 55.1312 58.917 53.8014 60.8564C53.2348 61.5722 53.1618 63.0413 53.2373 64.7009Z" fill="url(#paint22_linear_380_932)"/>
<path fill-rule="evenodd" clip-rule="evenodd" d="M64.7968 62.5664C64.7968 62.5664 59.9519 66.6493 63.1208 74.9288C63.1208 74.9288 65.3997 70.4937 65.8085 67.9749C66.1992 65.516 64.7968 62.5664 64.7968 62.5664Z" fill="white"/>
<path fill-rule="evenodd" clip-rule="evenodd" d="M115.593 73.8974L126.331 76.8272C126.331 76.8272 128.372 79.5529 128.984 82.0177C129.675 84.474 124.854 91.3359 122.917 92.665C121.061 94.0044 115.132 93.6199 113.817 92.8222C112.503 92.0244 104.735 85.4453 104.735 85.4453C104.735 85.4453 106.004 79.1091 107.153 77.5823C109.372 74.5557 115.593 73.8974 115.593 73.8974Z" fill="url(#paint23_linear_380_932)"/>
<path fill-rule="evenodd" clip-rule="evenodd" d="M126.314 76.9442C125.349 76.0446 116.307 79.159 114.725 80.5936C113.143 82.0471 113.513 93.3138 114.019 93.3925C114.525 93.4712 119.437 94.576 122.177 93.3968C124.917 92.2364 129.115 85.1171 129.018 82.9721C128.995 80.6868 127.219 77.8502 126.314 76.9442Z" fill="url(#paint24_linear_380_932)"/>
<path opacity="0.8" fill-rule="evenodd" clip-rule="evenodd" d="M116.145 91.442C116.853 92.8446 120.169 93.1748 121.564 92.4205C122.605 91.8364 125.577 87.6751 126.973 85.1776C127.361 84.3976 127.694 83.756 127.682 83.492C127.708 82.2768 126.605 78.813 125.728 78.565C124.138 78.1275 118.259 79.888 116.728 81.2061C116.38 81.5084 116.124 82.0849 115.933 82.7683C115.311 85.4678 115.593 90.3638 116.145 91.442Z" fill="url(#paint25_linear_380_932)"/>
<path opacity="0.8" fill-rule="evenodd" clip-rule="evenodd" d="M115.957 82.7056L116.799 84.1855C119.954 82.0092 126.82 85.0338 126.82 85.0338C127.202 84.2741 127.531 83.6492 127.519 83.3921C127.544 82.2086 126.456 78.8356 125.592 78.5942C124.024 78.1684 118.229 79.8839 116.72 81.1679C116.394 81.4235 116.141 81.9667 115.957 82.7056Z" fill="url(#paint26_linear_380_932)"/>
<path fill-rule="evenodd" clip-rule="evenodd" d="M119.15 79.7207C119.15 79.7207 118.584 84.7681 115.692 86.7045C115.692 86.7045 115.784 82.4553 116.53 81.3597C117.157 80.3343 119.15 79.7207 119.15 79.7207Z" fill="white"/>
<path opacity="0.8" fill-rule="evenodd" clip-rule="evenodd" d="M115.111 79.907L106.952 77.9482C106.952 77.9482 107.7 75.4595 112.208 74.1724C112.208 74.1724 108.028 74.7471 104.67 77.9829C101.312 81.2188 95.7131 89.7933 95.7131 89.7933L109.815 88.9765L114.113 92.3421C114.093 92.3442 113.138 85.4055 115.111 79.907Z" fill="url(#paint27_linear_380_932)"/>
<path fill-rule="evenodd" clip-rule="evenodd" d="M165.607 39.6287C165.607 39.6287 171.271 30.6688 171.604 29.9464C171.997 29.2176 173.345 9.24513 173.345 9.24513C173.345 9.24513 169.345 3.88629 168.513 3.44015C167.7 2.99187 154.312 17.5802 153.783 18.4569C153.234 19.3358 150.249 41.2568 150.249 41.2568L165.607 39.6287Z" fill="url(#paint28_radial_380_932)"/>
<path fill-rule="evenodd" clip-rule="evenodd" d="M172.936 9.17838C172.936 9.17838 167.646 20.4266 166.404 21.3702C165.162 22.3139 160.464 24.4926 158.591 24.3514C156.795 24.1454 155.183 23.5611 154.792 22.4696C154.381 21.3615 153.599 18.2911 153.599 18.2911C153.599 18.2911 167.083 3.13398 168.16 3.4351C169.257 3.71532 172.936 9.17838 172.936 9.17838Z" fill="#ABFFED"/>
<g opacity="0.5">
<path opacity="0.5" fill-rule="evenodd" clip-rule="evenodd" d="M173.062 9.06295C173.062 9.06295 167.619 20.2229 166.358 21.1754C165.097 22.128 160.339 24.3646 158.451 24.2641C156.643 24.0983 155.023 23.5571 154.639 22.4927C154.235 21.4123 153.477 18.4114 153.477 18.4114C153.477 18.4114 167.218 3.24352 168.302 3.5174C169.405 3.77033 173.062 9.06295 173.062 9.06295Z" fill="url(#paint29_radial_380_932)"/>
</g>
<path fill-rule="evenodd" clip-rule="evenodd" d="M155.117 30.5571C155.117 30.5571 152.325 35.6517 151.359 36.1543C150.391 36.6387 145.438 37.813 144.181 38.0172C142.924 38.2214 135.285 37.8312 135.285 37.8312C135.285 37.8312 146.489 28.462 148.497 27.796C149.608 27.4244 155.117 30.5571 155.117 30.5571Z" fill="#ABFFED"/>
<path fill-rule="evenodd" clip-rule="evenodd" d="M166.252 21.8902L171.279 30.3691C171.279 30.3691 172.987 15.7387 173.07 9.41211L166.252 21.8902Z" fill="#ABFFED"/>
<g opacity="0.5">
<path opacity="0.5" fill-rule="evenodd" clip-rule="evenodd" d="M157.141 40.8544L159.825 25.0946L166.969 22.0257L171.853 30.1255L165.663 39.7445L157.141 40.8544Z" fill="url(#paint30_radial_380_932)"/>
</g>
<g opacity="0.5">
<path opacity="0.5" fill-rule="evenodd" clip-rule="evenodd" d="M155.766 22.3547L150.485 40.1449L154.497 18.1026C154.497 18.1026 155.345 21.709 155.766 22.3547Z" fill="url(#paint31_linear_380_932)"/>
</g>
<path fill-rule="evenodd" clip-rule="evenodd" d="M163.044 23.6797L157.869 24.4135L159.567 26.1L163.044 23.6797Z" fill="#ABFFED"/>
<path fill-rule="evenodd" clip-rule="evenodd" d="M170.063 14.6846L156.096 17.2574L155.432 16.5814L153.904 18.0427L156.108 17.4971L169.399 15.0846L169.759 15.2272L170.063 14.6846Z" fill="#ABFFED"/>
<path fill-rule="evenodd" clip-rule="evenodd" d="M133.816 42.5077C133.816 42.5077 134.998 38.9095 135.311 37.9576C135.683 36.9994 147.857 28.0033 148.544 27.8578C149.251 27.7102 154.516 30.1182 155.174 30.6375C155.833 31.1568 157.786 39.9782 157.786 39.9782L133.815 42.4894L133.816 42.5077Z" fill="url(#paint32_radial_380_932)"/>
<g opacity="0.5">
<path opacity="0.5" fill-rule="evenodd" clip-rule="evenodd" d="M155.171 30.4506C155.171 30.4506 152.325 35.4427 151.351 35.9477C150.376 36.4351 145.397 37.6638 144.133 37.8847C142.87 38.1056 135.21 37.8655 135.21 37.8655C135.21 37.8655 146.534 28.5749 148.554 27.8924C149.672 27.5119 155.171 30.4506 155.171 30.4506Z" fill="url(#paint33_radial_380_932)"/>
</g>
<path fill-rule="evenodd" clip-rule="evenodd" d="M151.24 36.7517L152.601 41.1761L157.807 40.6246L155.127 30.9109C155.106 30.8941 152.14 35.9681 151.24 36.7517Z" fill="#ABFFED"/>
<g opacity="0.5">
<path opacity="0.5" fill-rule="evenodd" clip-rule="evenodd" d="M144.434 38.1725L141.399 41.5656L134.022 42.4288L135.553 38.077C135.616 38.157 142.181 38.314 144.434 38.1725Z" fill="url(#paint34_linear_380_932)"/>
</g>
<path fill-rule="evenodd" clip-rule="evenodd" d="M146.208 37.9834L142.382 38.359L143.879 38.8737L146.208 37.9834Z" fill="#ABFFED"/>
<path fill-rule="evenodd" clip-rule="evenodd" d="M91.1881 43.8023C91.1881 43.8023 85.6387 41.0118 83.487 40.2526C81.3362 39.5116 72.7382 40.9165 72.7382 40.9165C72.7382 40.9165 59.559 27.1767 56.6725 25.9297C53.7861 24.6826 42.2178 26.0145 41.3301 26.4892C40.4398 26.9097 42.3712 48.8667 42.3712 48.8667L91.1872 43.7842L91.1881 43.8023Z" fill="url(#paint35_linear_380_932)"/>
<path opacity="0.8" fill-rule="evenodd" clip-rule="evenodd" d="M41.3557 25.2282C41.3557 25.2282 48.8723 33.2135 49.2768 33.9215C49.6813 34.6296 52.8695 47.805 52.8695 47.805L43.2656 48.8158C43.2415 48.7413 40.5024 34.0944 41.3557 25.2282Z" fill="url(#paint36_linear_380_932)"/>
<path opacity="0.8" fill-rule="evenodd" clip-rule="evenodd" d="M75.415 41.5978L77.2704 43.6156L82.916 44.9819L82.9489 45.6912L76.4873 46.3657L72.8205 41.9966L75.415 41.5978Z" fill="url(#paint37_linear_380_932)"/>
<path fill-rule="evenodd" clip-rule="evenodd" d="M33.617 49.4821C33.617 49.4821 36.4067 41.5005 37.1665 40.841C37.9066 40.1836 43.6467 39.5149 44.9556 40.032C46.3235 40.5431 53.6798 47.3984 53.6798 47.3984L33.617 49.4821Z" fill="url(#paint38_linear_380_932)"/>
<path opacity="0.8" fill-rule="evenodd" clip-rule="evenodd" d="M37.2712 40.5072C37.2712 40.5072 36.7466 41.8555 36.851 42.3767C36.9588 42.9736 40.4055 45.9346 40.4055 45.9346L40.5366 48.8292L33.6619 49.5587C33.6383 49.4852 36.4557 41.6773 37.2712 40.5072Z" fill="url(#paint39_linear_380_932)"/>
<path fill-rule="evenodd" clip-rule="evenodd" d="M48.9015 33.9278C50.7987 35.1056 53.7411 36.174 56.218 36.1717C58.754 36.1632 64.9862 34.6669 65.2201 33.7249C65.454 32.7829 58.7256 26.1101 56.6962 25.0746C54.6669 24.0391 44.8876 24.6771 41.3256 25.6371L48.9015 33.9278Z" fill="#ABA7B5"/>
<path fill-rule="evenodd" clip-rule="evenodd" d="M82.6687 41.3289C84.3669 41.4039 88.1178 43.6155 88.1918 43.9279C88.2854 44.2384 83.4042 45.1825 82.8458 45.0441C82.2679 44.9077 77.6842 44.2392 77.167 43.7232C76.6497 43.2073 75.3197 41.7612 75.3197 41.7612C75.3197 41.7612 79.7062 41.1877 82.6687 41.3289Z" fill="#ABA7B5"/>
<path fill-rule="evenodd" clip-rule="evenodd" d="M50.2449 44.2406C50.2449 44.2406 42.8866 46.7527 40.8646 45.7988C38.8426 44.8449 36.7135 42.8653 36.6832 42.2135C36.7316 41.5536 36.9073 41.0805 37.3875 40.7759C37.8677 40.4712 42.753 39.6354 44.6102 40.0243C46.5471 40.4231 50.2449 44.2406 50.2449 44.2406Z" fill="#ABA7B5"/>
<path opacity="0.2" fill-rule="evenodd" clip-rule="evenodd" d="M65.1022 32.8119C65.1022 32.8119 61.6366 28.0522 56.5171 27.2916C51.3976 26.5311 46.9691 26.5916 46.4895 26.9149C46.0854 27.1574 47.6126 32.7752 50.4031 33.6507C53.197 34.5989 59.6544 33.9262 60.3683 32.6855C61.0821 31.4448 58.0813 29.0239 56.4316 28.4304C54.7809 27.8188 50.8527 28.4285 50.3816 28.9331C49.9105 29.4378 50.7837 31.6247 51.5658 31.8531C52.4276 32.0913 56.342 31.6106 56.3853 30.8407C56.4278 30.0527 55.6862 29.4192 55.6862 29.4192L54.285 29.4923C54.285 29.4923 55.1527 29.8575 55.2421 30.5042C55.3512 31.1489 52.6323 31.8148 51.6893 31.5304C50.766 31.2439 50.538 29.3177 51.2965 29.0383C52.0525 28.7044 54.8678 28.4111 56.3713 28.8376C57.8749 29.2641 59.6865 32.064 59.4345 32.6005C59.1825 33.137 52.8907 34.3939 50.2102 32.9055C47.4715 31.4413 47.7138 27.7167 48.3345 27.4516C48.8936 27.1382 54.7098 26.7145 58.5997 28.2592C62.4699 29.8059 65.0547 33.4911 65.0547 33.4911L65.1022 32.8119Z" fill="url(#paint40_linear_380_932)"/>
<path fill-rule="evenodd" clip-rule="evenodd" d="M54.7477 36.2053L49.8896 37.1092L47.6222 32.3746C47.6816 32.3683 51.9979 35.3032 54.7477 36.2053Z" fill="#8B6F8B"/>
<path fill-rule="evenodd" clip-rule="evenodd" d="M43.7537 46.0305L40.3453 47.3674L38.6733 44.642C38.6733 44.642 40.493 45.8368 43.7537 46.0305Z" fill="#8B6F8B"/>
<path opacity="0.2" fill-rule="evenodd" clip-rule="evenodd" d="M54.8613 36.7105L62.5417 47.0952L52.5934 48.0742L51.8062 46.6143L49.9765 37.6234L54.8613 36.7105Z" fill="url(#paint41_linear_380_932)"/>
<g opacity="0.5">
<path opacity="0.5" d="M119.862 100.161C109.887 101.391 101.53 95.0002 101.195 85.9035C100.86 76.7885 108.673 68.4227 118.648 67.1931C128.623 65.9634 136.98 72.3544 137.315 81.451C137.67 90.5452 129.838 98.9318 119.862 100.161Z" fill="url(#paint42_radial_380_932)"/>
</g>
<g opacity="0.5">
<path opacity="0.5" d="M63.452 83.0268C53.9592 84.197 45.997 78.1077 45.6775 69.4333C45.3581 60.7588 52.8017 52.7704 62.2946 51.6002C71.7875 50.43 79.7496 56.5193 80.0691 65.1937C80.3886 73.8682 72.965 81.8541 63.452 83.0268Z" fill="url(#paint43_radial_380_932)"/>
</g>
<g opacity="0.5">
<path opacity="0.5" fill-rule="evenodd" clip-rule="evenodd" d="M117.288 85.577C117.288 85.577 125.219 87.7573 140.404 84.3754C155.608 80.9764 184.887 76.2093 197.928 77.1859C210.969 78.1625 166.616 98.2282 127.386 102.656C88.2326 107.061 95.7113 97.911 63.6892 97.027C31.6671 96.143 0.216783 105.117 -7.85679 103.212C-15.8516 101.315 0.589057 94.9521 21.1049 91.9744C21.1049 91.9744 6.85796 94.558 3.53278 97.6786C0.20998 100.845 43.659 91.6421 67.7571 91.9897C91.874 92.3201 100.233 102.728 124.368 100.767C148.503 98.8052 127.002 91.1499 123.83 90.4285C120.657 89.6917 116.068 87.7398 116.068 87.7398L117.288 85.577Z" fill="url(#paint44_linear_380_932)"/>
</g>
<g opacity="0.5">
<path opacity="0.5" fill-rule="evenodd" clip-rule="evenodd" d="M64.7363 63.6157C64.7363 63.6157 51.1297 53.2061 35.3227 55.5619C19.496 57.9199 26.9015 69.8269 -0.575338 74.7339C-27.9756 79.5808 -51.737 92.6683 -54.1786 98.1415C-56.6203 103.615 -34.3775 101.62 -34.3775 101.62C-34.3775 101.62 -49.7724 99.112 -38.1014 91.795C-26.4304 84.4781 -20.1668 81.1393 7.94269 74.3257C36.0346 67.5656 63.9394 69.6893 63.9394 69.6893L64.7363 63.6157Z" fill="url(#paint45_linear_380_932)"/>
</g>
<defs>
<linearGradient id="paint0_linear_380_932" x1="108.879" y1="87.1876" x2="104.813" y2="47.0121" gradientUnits="userSpaceOnUse">
<stop stop-color="#65337C"/>
<stop offset="0.2838" stop-color="#752E32"/>
<stop offset="1" stop-color="#4A2232"/>
</linearGradient>
<linearGradient id="paint1_linear_380_932" x1="179.05" y1="45.2394" x2="137.354" y2="47.2515" gradientUnits="userSpaceOnUse">
<stop stop-color="#C77CBD"/>
<stop offset="1" stop-color="#974577"/>
</linearGradient>
<linearGradient id="paint2_linear_380_932" x1="175.968" y1="63.6957" x2="142.9" y2="65.2507" gradientUnits="userSpaceOnUse">
<stop stop-color="#C77CBD"/>
<stop offset="1" stop-color="#974577"/>
</linearGradient>
<linearGradient id="paint3_linear_380_932" x1="145.693" y1="74.1493" x2="91.6725" y2="76.6811" gradientUnits="userSpaceOnUse">
<stop stop-color="#C77CBD"/>
<stop offset="1" stop-color="#974577"/>
</linearGradient>
<linearGradient id="paint4_linear_380_932" x1="100.796" y1="62.1967" x2="38.7217" y2="65.0557" gradientUnits="userSpaceOnUse">
<stop stop-color="#C77CBD"/>
<stop offset="1" stop-color="#974577"/>
</linearGradient>
<linearGradient id="paint5_linear_380_932" x1="145.586" y1="76.5058" x2="127.261" y2="77.3761" gradientUnits="userSpaceOnUse">
<stop stop-color="#C77CBD"/>
<stop offset="1" stop-color="#974577"/>
</linearGradient>
<linearGradient id="paint6_linear_380_932" x1="170.124" y1="65.1419" x2="143.006" y2="66.4122" gradientUnits="userSpaceOnUse">
<stop stop-color="#C77CBD"/>
<stop offset="1" stop-color="#974577"/>
</linearGradient>
<linearGradient id="paint7_linear_380_932" x1="173.471" y1="44.5725" x2="137.304" y2="46.3262" gradientUnits="userSpaceOnUse">
<stop stop-color="#C77CBD"/>
<stop offset="1" stop-color="#974577"/>
</linearGradient>
<linearGradient id="paint8_linear_380_932" x1="119.413" y1="83.5025" x2="92.4701" y2="84.7838" gradientUnits="userSpaceOnUse">
<stop stop-color="#C77CBD"/>
<stop offset="1" stop-color="#974577"/>
</linearGradient>
<linearGradient id="paint9_linear_380_932" x1="92.9809" y1="52.0282" x2="70.8748" y2="53.043" gradientUnits="userSpaceOnUse">
<stop stop-color="#C77CBD"/>
<stop offset="1" stop-color="#974577"/>
</linearGradient>
<linearGradient id="paint10_linear_380_932" x1="80.7464" y1="62.3112" x2="57.0332" y2="63.449" gradientUnits="userSpaceOnUse">
<stop stop-color="#C77CBD"/>
<stop offset="1" stop-color="#974577"/>
</linearGradient>
<linearGradient id="paint11_linear_380_932" x1="61.446" y1="63.1095" x2="52.5814" y2="63.6056" gradientUnits="userSpaceOnUse">
<stop stop-color="#C77CBD"/>
<stop offset="1" stop-color="#974577"/>
</linearGradient>
<linearGradient id="paint12_linear_380_932" x1="57.9363" y1="58.4905" x2="38.7403" y2="59.4886" gradientUnits="userSpaceOnUse">
<stop stop-color="#C77CBD"/>
<stop offset="1" stop-color="#974577"/>
</linearGradient>
<linearGradient id="paint13_linear_380_932" x1="126.965" y1="69.1421" x2="103.879" y2="70.2236" gradientUnits="userSpaceOnUse">
<stop stop-color="#C77CBD"/>
<stop offset="1" stop-color="#974577"/>
</linearGradient>
<linearGradient id="paint14_linear_380_932" x1="138.823" y1="59.1261" x2="123.961" y2="59.81" gradientUnits="userSpaceOnUse">
<stop stop-color="#C77CBD"/>
<stop offset="1" stop-color="#974577"/>
</linearGradient>
<linearGradient id="paint15_linear_380_932" x1="85.204" y1="79.5357" x2="73.599" y2="80.0618" gradientUnits="userSpaceOnUse">
<stop stop-color="#C77CBD"/>
<stop offset="1" stop-color="#974577"/>
</linearGradient>
<linearGradient id="paint16_linear_380_932" x1="146.987" y1="64.4107" x2="61.6619" y2="69.0599" gradientUnits="userSpaceOnUse">
<stop stop-color="#C77CBD"/>
<stop offset="1" stop-color="#974577"/>
</linearGradient>
<linearGradient id="paint17_linear_380_932" x1="108.73" y1="86.3933" x2="104.437" y2="47.8862" gradientUnits="userSpaceOnUse">
<stop stop-color="#3D56FF"/>
<stop offset="1"/>
</linearGradient>
<linearGradient id="paint18_linear_380_932" x1="66.6222" y1="79.3871" x2="64.0749" y2="55.3164" gradientUnits="userSpaceOnUse">
<stop stop-color="#610A83"/>
<stop offset="1" stop-color="#FFBFED"/>
</linearGradient>
<linearGradient id="paint19_linear_380_932" x1="75.3747" y1="73.7664" x2="59.475" y2="74.4867" gradientUnits="userSpaceOnUse">
<stop stop-color="#C77CBD"/>
<stop offset="1" stop-color="#974577"/>
</linearGradient>
<linearGradient id="paint20_linear_380_932" x1="60.1647" y1="79.0954" x2="57.6944" y2="55.7958" gradientUnits="userSpaceOnUse">
<stop stop-color="#470760"/>
<stop offset="1" stop-color="#A210DA"/>
</linearGradient>
<linearGradient id="paint21_linear_380_932" x1="60.0406" y1="77.2817" x2="57.9305" y2="57.3544" gradientUnits="userSpaceOnUse">
<stop stop-color="#C77CBD"/>
<stop offset="1" stop-color="#974577"/>
</linearGradient>
<linearGradient id="paint22_linear_380_932" x1="65.1076" y1="61.4399" x2="53.102" y2="61.9857" gradientUnits="userSpaceOnUse">
<stop stop-color="#C77CBD"/>
<stop offset="1" stop-color="#974577"/>
</linearGradient>
<linearGradient id="paint23_linear_380_932" x1="117.342" y1="93.7176" x2="115.247" y2="73.9187" gradientUnits="userSpaceOnUse">
<stop stop-color="#610A83"/>
<stop offset="1" stop-color="#FFBFED"/>
</linearGradient>
<linearGradient id="paint24_linear_380_932" x1="121.657" y1="93.7463" x2="119.922" y2="77.3893" gradientUnits="userSpaceOnUse">
<stop stop-color="#800DAD"/>
<stop offset="1" stop-color="#BD13FF"/>
</linearGradient>
<linearGradient id="paint25_linear_380_932" x1="121.972" y1="92.6301" x2="120.525" y2="78.9983" gradientUnits="userSpaceOnUse">
<stop stop-color="#C77CBD"/>
<stop offset="1" stop-color="#974577"/>
</linearGradient>
<linearGradient id="paint26_linear_380_932" x1="127.439" y1="81.6232" x2="115.959" y2="82.1509" gradientUnits="userSpaceOnUse">
<stop stop-color="#C77CBD"/>
<stop offset="1" stop-color="#974577"/>
</linearGradient>
<linearGradient id="paint27_linear_380_932" x1="115.251" y1="83.0387" x2="95.447" y2="83.9372" gradientUnits="userSpaceOnUse">
<stop stop-color="#C77CBD"/>
<stop offset="1" stop-color="#974577"/>
</linearGradient>
<radialGradient id="paint28_radial_380_932" cx="0" cy="0" r="1" gradientUnits="userSpaceOnUse" gradientTransform="translate(163.984 33.3448) rotate(173.948) scale(21.8107 20.3487)">
<stop stop-color="#55DBD6"/>
<stop offset="1" stop-color="#0072CD"/>
</radialGradient>
<radialGradient id="paint29_radial_380_932" cx="0" cy="0" r="1" gradientUnits="userSpaceOnUse" gradientTransform="translate(163.3 13.9136) rotate(172.961) scale(10.373 9.37993)">
<stop/>
<stop offset="1" stop-color="white"/>
</radialGradient>
<radialGradient id="paint30_radial_380_932" cx="0" cy="0" r="1" gradientUnits="userSpaceOnUse" gradientTransform="translate(164.913 31.1879) rotate(172.949) scale(7.03588 9.3524)">
<stop offset="0.5838"/>
<stop offset="1" stop-color="white"/>
</radialGradient>
<linearGradient id="paint31_linear_380_932" x1="156.043" y1="28.7068" x2="150.039" y2="28.9511" gradientUnits="userSpaceOnUse">
<stop stop-color="#C77CBD"/>
<stop offset="1" stop-color="#974577"/>
</linearGradient>
<radialGradient id="paint32_radial_380_932" cx="0" cy="0" r="1" gradientUnits="userSpaceOnUse" gradientTransform="translate(147.464 38.6908) rotate(174.019) scale(19.5442 17.9932)">
<stop stop-color="#55DBD6"/>
<stop offset="1" stop-color="#0072CD"/>
</radialGradient>
<radialGradient id="paint33_radial_380_932" cx="0" cy="0" r="1" gradientUnits="userSpaceOnUse" gradientTransform="translate(145.167 33.02) rotate(173.224) scale(8.10846 7.14496)">
<stop/>
<stop offset="1" stop-color="white"/>
</radialGradient>
<linearGradient id="paint34_linear_380_932" x1="144.504" y1="39.1338" x2="133.926" y2="39.5548" gradientUnits="userSpaceOnUse">
<stop stop-color="#C77CBD"/>
<stop offset="1" stop-color="#974577"/>
</linearGradient>
<linearGradient id="paint35_linear_380_932" x1="66.5747" y1="46.3397" x2="64.2366" y2="23.8824" gradientUnits="userSpaceOnUse">
<stop stop-color="#633D4C"/>
<stop offset="1" stop-color="#685C5B"/>
</linearGradient>
<linearGradient id="paint36_linear_380_932" x1="47.4341" y1="48.3222" x2="44.963" y2="24.8432" gradientUnits="userSpaceOnUse">
<stop stop-color="#C77CBD"/>
<stop offset="1" stop-color="#974577"/>
</linearGradient>
<linearGradient id="paint37_linear_380_932" x1="78.0026" y1="46.2286" x2="77.4993" y2="41.4064" gradientUnits="userSpaceOnUse">
<stop stop-color="#C77CBD"/>
<stop offset="1" stop-color="#974577"/>
</linearGradient>
<linearGradient id="paint38_linear_380_932" x1="43.6442" y1="48.4701" x2="42.7473" y2="39.8349" gradientUnits="userSpaceOnUse">
<stop stop-color="#633D4C"/>
<stop offset="1" stop-color="#685C5B"/>
</linearGradient>
<linearGradient id="paint39_linear_380_932" x1="37.0793" y1="49.1509" x2="36.1702" y2="40.5836" gradientUnits="userSpaceOnUse">
<stop stop-color="#C77CBD"/>
<stop offset="1" stop-color="#974577"/>
</linearGradient>
<linearGradient id="paint40_linear_380_932" x1="55.9814" y1="34.4603" x2="55.0894" y2="25.8981" gradientUnits="userSpaceOnUse">
<stop stop-color="#C77CBD"/>
<stop offset="1" stop-color="#974577"/>
</linearGradient>
<linearGradient id="paint41_linear_380_932" x1="56.4948" y1="47.6913" x2="55.3284" y2="36.6848" gradientUnits="userSpaceOnUse">
<stop stop-color="#C77CBD"/>
<stop offset="1" stop-color="#974577"/>
</linearGradient>
<radialGradient id="paint42_radial_380_932" cx="0" cy="0" r="1" gradientUnits="userSpaceOnUse" gradientTransform="translate(119.261 83.6693) rotate(172.973) scale(18.2013 16.4393)">
<stop stop-color="#FF0095"/>
<stop offset="1"/>
</radialGradient>
<radialGradient id="paint43_radial_380_932" cx="0" cy="0" r="1" gradientUnits="userSpaceOnUse" gradientTransform="translate(62.8785 67.3222) rotate(172.972) scale(17.3115 15.6359)">
<stop stop-color="#FF0095"/>
<stop offset="1"/>
</radialGradient>
<linearGradient id="paint44_linear_380_932" x1="200.61" y1="85.0445" x2="-10.2131" y2="96.0161" gradientUnits="userSpaceOnUse">
<stop stop-color="#8459D6"/>
<stop offset="1"/>
</linearGradient>
<linearGradient id="paint45_linear_380_932" x1="65.0512" y1="71.2048" x2="-55.3152" y2="76.1643" gradientUnits="userSpaceOnUse">
<stop stop-color="#8459D6"/>
<stop offset="1"/>
</linearGradient>
</defs>
</svg>
