<svg width="50" height="25" viewBox="0 0 50 25" fill="none" xmlns="http://www.w3.org/2000/svg">
<path d="M37.7 0C35.6 0 33.6 0.5 31.8 1.5C30.8 2.1 29.9 2.8 29.1 3.6L25 7.7L20.9 3.6C20.1 2.8 19.2 2.1 18.2 1.5C16.4 0.5 14.3 0 12.3 0C5.5 0 0 5.5 0 12.3C0 19.1 5.5 24.6 12.3 24.6C14.4 24.6 16.4 24.1 18.2 23.1C19.2 22.5 20.1 21.9 20.9 21L25 16.9L29.1 21C29.9 21.8 30.8 22.5 31.8 23.1C33.6 24.1 35.7 24.6 37.7 24.6C44.5 24.6 50 19.1 50 12.3C50 5.5 44.5 0 37.7 0ZM16.3 16.4C15.9 16.8 15.5 17.1 15 17.4C14.1 17.9 13.2 18.1 12.2 18.1C9 18.1 6.5 15.5 6.5 12.4C6.5 9.3 9.1 6.7 12.2 6.7C13.2 6.7 14.1 6.9 15 7.4C15.5 7.7 15.9 8 16.3 8.4L20.4 12.5L16.3 16.4ZM37.7 18C36.7 18 35.8 17.8 34.9 17.3C34.4 17 34 16.7 33.6 16.3L29.6 12.3L33.7 8.2C34.1 7.8 34.5 7.5 35 7.2C35.9 6.7 36.8 6.5 37.8 6.5C41 6.5 43.5 9.1 43.5 12.2C43.5 15.5 40.9 18 37.7 18Z" fill="white"/>
</svg>
