<svg width="267" height="95" viewBox="0 0 267 95" fill="none" xmlns="http://www.w3.org/2000/svg">
<path d="M139.946 62.1513C139.946 62.9663 140.159 63.5942 140.586 64.0083C141.013 64.4225 141.627 64.6363 142.427 64.6363H153.352V68.9782H141.533C140.52 68.9782 139.599 68.8446 138.759 68.5641C137.918 68.2835 137.198 67.8827 136.598 67.3349C135.998 66.7872 135.531 66.1192 135.197 65.3176C134.864 64.516 134.704 63.6075 134.704 62.5788V49.406H139.933V62.1513H139.946Z" fill="white"/>
<path d="M171.08 49.406H176.336V68.9782H162.49C161.476 68.9782 160.555 68.8446 159.715 68.5641C158.875 68.2835 158.154 67.8827 157.554 67.3349C156.954 66.7872 156.487 66.1192 156.153 65.3176C155.82 64.516 155.66 63.6075 155.66 62.5788V49.406H160.915V62.1513C160.915 62.9663 161.129 63.5942 161.556 64.0083C161.983 64.4225 162.596 64.6363 163.397 64.6363H171.067V49.406H171.08Z" fill="white"/>
<path d="M178.63 64.6362H191.556C192.196 64.6362 192.77 64.5026 193.237 64.2487C193.717 63.9949 193.957 63.5674 193.957 62.9796C193.957 62.4852 193.77 62.1112 193.41 61.8707C193.05 61.6169 192.61 61.4565 192.103 61.3897H185.487C184.553 61.3897 183.686 61.2695 182.885 61.029C182.085 60.7885 181.391 60.4278 180.791 59.9602C180.191 59.4926 179.697 58.8914 179.324 58.1967C178.95 57.502 178.71 56.7004 178.643 55.8053V54.977C178.764 54.0819 179.004 53.2803 179.377 52.5856C179.751 51.8909 180.231 51.303 180.818 50.8354C181.405 50.3678 182.098 50.0071 182.885 49.7667C183.672 49.5262 184.539 49.3926 185.5 49.3926H199.306V53.7345H186.38C185.727 53.7345 185.166 53.8681 184.7 54.122C184.233 54.3758 183.993 54.8033 183.993 55.3912C183.993 55.8855 184.166 56.2729 184.526 56.5401C184.873 56.8073 185.313 56.9676 185.82 57.0211H192.463C193.397 57.0211 194.264 57.1413 195.064 57.3818C195.865 57.6223 196.558 57.9696 197.158 58.4372C197.759 58.9048 198.239 59.4793 198.612 60.174C198.986 60.8687 199.213 61.6703 199.306 62.5654V63.3937C199.199 64.2888 198.946 65.0904 198.586 65.7851C198.212 66.4798 197.732 67.0677 197.145 67.5353C196.558 68.0029 195.865 68.3636 195.064 68.6041C194.264 68.8445 193.397 68.9781 192.463 68.9781H178.657V64.6362H178.63Z" fill="white"/>
<path d="M210.498 54.1488L205.469 68.9782H200.24L206.95 49.406H214.033L220.769 68.9782H215.513L210.498 54.1488ZM207.883 64.6363H213.139V68.9782H207.883V64.6363Z" fill="white"/>
<path d="M222.37 57.0345H235.296C235.936 57.0345 236.51 56.9009 236.976 56.6471C237.457 56.3932 237.697 55.9791 237.697 55.4046C237.697 54.8168 237.457 54.3892 236.976 54.1354C236.496 53.8816 235.936 53.748 235.296 53.748H222.37V49.406H236.176C237.11 49.406 237.977 49.5262 238.777 49.7801C239.578 50.0339 240.271 50.3813 240.858 50.8489C241.445 51.3165 241.925 51.9043 242.299 52.599C242.672 53.2937 242.912 54.0953 243.019 54.9904V55.8187C242.846 57.649 242.125 59.0385 240.845 59.9737C239.564 60.9222 237.844 61.3898 235.656 61.3898L243.099 68.9916H236.683L229.04 61.3898H227.612V68.9916H222.357V57.0345H222.37Z" fill="white"/>
<path d="M260.694 68.9782L250.596 56.8341V68.9782H245.34V49.406H250.676L260.747 61.5501V49.406H266.003V68.9782H260.694Z" fill="white"/>
<path d="M57.4821 81.3628C56.9219 81.5632 56.8285 82.3247 57.3354 82.6453C67.1265 88.6973 79.2253 90.9819 91.284 88.0427C112.187 82.9526 126.02 63.8747 125.313 43.1535C125.286 42.5256 124.512 42.2451 124.072 42.6993C110.8 56.46 80.6126 73.2934 57.4821 81.3628Z" fill="white"/>
<path d="M152.538 9.15264C152.525 9.17936 152.485 9.166 152.485 9.13928L152.538 9.15264Z" fill="white"/>
<path d="M165.785 4.73087C165.785 4.65071 165.732 4.58392 165.652 4.5572C165.465 4.4904 160.863 3.03417 153.78 8.20444C153.767 8.2178 152.846 8.91251 151.806 9.92786L148.524 10.3153C148.484 10.3153 148.444 10.342 148.417 10.3687L145.763 12.7201C145.723 12.7468 145.71 12.7869 145.696 12.8403C145.696 12.8537 145.696 12.8804 145.696 12.8938C145.71 12.9606 145.75 13.014 145.803 13.0407L148.831 14.4702C148.791 14.684 148.804 14.871 148.804 15.0714C141.388 20.1482 130.369 26.7613 122.913 30.0612C122.899 30.0745 122.873 30.0612 122.873 30.0478C115.456 8.51172 92.7657 -4.20688 70.2355 1.27067C46.3047 7.09557 31.6315 31.2502 37.4474 55.2044C38.5679 59.8002 40.3554 64.0353 42.6898 67.8696C42.7031 67.8963 42.6898 67.923 42.6631 67.923C32.3518 69.2991 24.8817 68.217 21.707 64.6632C17.3584 59.7869 22.414 53.0802 29.5772 47.763C30.3909 47.1618 30.8845 46.2266 30.9378 45.2246C31.0712 42.6729 28.43 40.8827 26.109 41.9782C10.4085 49.3127 -2.90412 65.1575 0.550769 73.9483C5.92653 87.6422 49.186 79.4793 95.4202 55.9793C112.054 47.5225 134.531 32.3591 150.925 17.9571C151.259 18.0373 151.699 18.1041 152.246 18.0907L152.899 21.3906C152.913 21.4574 152.953 21.5109 153.02 21.5376C153.086 21.5643 153.153 21.5509 153.206 21.5109L156.114 19.4935C156.154 19.4668 156.168 19.4401 156.181 19.4L157.248 16.3005C158.035 15.8062 158.835 15.2184 159.649 14.5504C164.318 10.7027 165.452 7.29597 165.719 5.61262C165.812 5.06487 165.785 4.74423 165.785 4.73087Z" fill="url(#paint0_linear_2342_5)"/>
<path d="M131.409 4.85071C131.409 4.85071 130.729 8.93883 125.98 10.2882C125.98 10.2882 130.742 13.067 131.422 16.4604C132.102 13.0537 136.851 10.2882 136.851 10.2882C132.089 8.92547 131.409 4.85071 131.409 4.85071Z" fill="white"/>
<path opacity="0.8" d="M45.3033 83.6472C45.3033 83.6472 44.6897 87.3479 40.4211 88.5904C40.4211 88.5904 44.6897 90.915 45.3033 94.0011C45.917 90.915 50.1855 88.5904 50.1855 88.5904C45.917 87.3613 45.3033 83.6472 45.3033 83.6472Z" fill="white"/>
<path opacity="0.6" d="M125.7 68.7109C125.7 68.7109 125.153 72.0242 121.324 73.1331C121.324 73.1331 125.153 75.2172 125.7 77.9827C126.247 75.2172 130.075 73.1331 130.075 73.1331C126.247 72.0242 125.7 68.7109 125.7 68.7109Z" fill="white"/>
<defs>
<linearGradient id="paint0_linear_2342_5" x1="124.594" y1="-65.6764" x2="68.3051" y2="72.8056" gradientUnits="userSpaceOnUse">
<stop stop-color="#5E14D4"/>
<stop offset="0.507552" stop-color="white"/>
</linearGradient>
</defs>
</svg>
