<svg width="27" height="22" viewBox="0 0 27 22" fill="none" xmlns="http://www.w3.org/2000/svg">
<path d="M24.8766 3.16052L27 1.10881V0.660156H19.6456L14.4045 13.8425L8.44353 0.660156H0.73163V1.11049L3.21247 4.12673C3.45357 4.34853 3.58161 4.6762 3.54835 5.00387V16.8588C3.62484 17.2856 3.48683 17.7242 3.19086 18.035L0.395752 21.4562V21.8998H8.31549V21.4495L5.52205 18.0333C5.21943 17.7225 5.07643 17.2906 5.13795 16.8571V6.60357L12.09 21.9049H12.8981L18.8757 6.60357V18.7929C18.8757 19.1155 18.8757 19.181 18.6662 19.3911L16.5146 21.4932V21.9435H26.9484V21.4932L24.875 19.4415C24.6937 19.3037 24.5989 19.0701 24.6372 18.8433V3.75873C24.6023 3.53188 24.6954 3.29831 24.8766 3.16052Z" fill="#FFB803"/>
</svg>
