<svg width="92" height="92" viewBox="0 0 92 92" fill="none" xmlns="http://www.w3.org/2000/svg">
<path d="M74.3446 91.3502H17.656C8.26269 91.3502 0.649414 83.7369 0.649414 74.3436V17.655C0.649414 8.26172 8.26269 0.648438 17.656 0.648438H74.3446C83.7379 0.648438 91.3512 8.26172 91.3512 17.655V74.3436C91.3512 83.7369 83.7379 91.3502 74.3446 91.3502Z" fill="white" fill-opacity="0.1"/>
<path d="M69.1103 29.3455L73.5 25.1483V24.2305H58.2959L47.4609 51.1977L35.1375 24.2305H19.1944V25.1517L24.3231 31.322C24.8216 31.7758 25.0862 32.4461 25.0175 33.1164V57.368C25.1756 58.2411 24.8903 59.1383 24.2784 59.7742L18.5 66.773V67.6805H34.8728V66.7592L29.0978 59.7708C28.4722 59.1348 28.1766 58.2514 28.3038 57.3645V36.3889L42.6759 67.6908H44.3466L56.7044 36.3889V61.3245C56.7044 61.9845 56.7044 62.1186 56.2713 62.5483L51.8231 66.8486V67.7698H73.3934V66.8486L69.1069 62.6514C68.7322 62.3695 68.5363 61.8917 68.6153 61.4277V30.5692C68.5431 30.1052 68.7356 29.6273 69.1103 29.3455V29.3455Z" fill="white"/>
</svg>
