<svg width="55" height="44" viewBox="0 0 55 44" fill="none" xmlns="http://www.w3.org/2000/svg">
<path d="M50.6103 5.115L55 0.917813V0H39.7959L28.9609 26.9672L16.6375 0H0.694374V0.921252L5.82313 7.09156C6.32156 7.54531 6.58625 8.21563 6.5175 8.88594V33.1375C6.67562 34.0106 6.39031 34.9078 5.77844 35.5438L0 42.5425V43.45H16.3728V42.5288L10.5978 35.5403C9.97219 34.9044 9.67656 34.0209 9.80375 33.1341V12.1584L24.1759 43.4603H25.8466L38.2044 12.1584V37.0941C38.2044 37.7541 38.2044 37.8881 37.7713 38.3178L33.3231 42.6181V43.5394H54.8934V42.6181L50.6069 38.4209C50.2322 38.1391 50.0363 37.6613 50.1153 37.1972V6.33875C50.0431 5.87469 50.2356 5.39687 50.6103 5.115Z" fill="#CD40FF"/>
</svg>
