<svg width="344" height="496" viewBox="0 0 344 496" fill="none" xmlns="http://www.w3.org/2000/svg">
<g opacity="0.2">
<path d="M153.338 188.954C152.019 193.101 154.328 197.541 158.468 198.861C161.62 199.871 164.918 198.77 166.915 196.385C167.923 198.641 169.736 200.531 172.137 201.577C170.836 205.778 173.163 210.255 177.358 211.594C181.573 212.933 186.061 210.603 187.399 206.383C187.454 206.163 187.527 205.943 187.564 205.723C188.498 206.677 189.616 207.466 190.88 208.053C189.946 209.135 189.213 210.42 188.755 211.869C186.941 217.575 190.092 223.666 195.79 225.464C199.656 226.693 203.706 225.629 206.472 223.024C207.004 226.399 208.946 229.445 211.859 231.353C210.998 232.692 210.283 234.141 209.77 235.719C207.352 243.333 210.247 251.35 216.366 255.809C216.183 256.175 216.018 256.561 215.89 256.964C215.175 259.203 215.505 261.514 216.586 263.386C214.845 265.605 213.471 268.156 212.573 270.999C208.543 283.713 215.56 297.308 228.276 301.326C231.299 302.298 234.377 302.61 237.363 302.39C235.916 304.665 234.725 307.16 233.864 309.838C231.335 317.837 232.178 326.112 235.568 333.102C226.278 336.129 218.546 343.431 215.358 353.466C210.118 369.996 219.243 387.645 235.769 392.892C252.277 398.139 269.903 389.003 275.143 372.473C277.69 364.474 276.847 356.218 273.439 349.21C278.533 347.54 283.169 344.586 286.833 340.605C285.221 343.284 283.883 346.201 282.894 349.32C278.441 363.355 281.978 378.032 290.955 388.416C285.862 390.269 281.648 394.36 279.871 399.937C276.847 409.459 282.106 419.623 291.615 422.65C292.696 422.999 293.795 423.219 294.895 423.347C291.157 427.53 288.225 432.52 286.412 438.208C282.454 450.683 284.799 463.654 291.652 473.671C302.975 474.515 321.7 477.561 341.964 487.78C352.17 483.193 360.433 474.442 364.079 462.92C370.895 441.437 359.022 418.504 337.585 411.679C329.67 409.165 321.572 409.202 314.133 411.312C314.188 411.165 314.243 411.037 314.298 410.89C315.25 407.863 315.379 404.781 314.792 401.882C322.818 403.276 330.843 402.194 337.952 399.093C338.025 406.707 342.899 413.752 350.557 416.174C360.066 419.201 370.217 413.936 373.24 404.414C376.245 394.892 371.005 384.728 361.495 381.701C360.231 381.297 358.949 381.059 357.666 380.93C358.82 378.747 359.81 376.454 360.579 374.032C367.102 353.466 356.494 331.579 336.761 323.745C337.53 322.222 338.208 320.608 338.739 318.92C343.98 302.39 334.855 284.741 318.347 279.494C304.074 274.962 288.958 281.181 281.739 293.639C279.193 291.859 276.371 290.428 273.256 289.437C281.904 287.988 289.435 281.86 292.275 272.926C296.305 260.212 289.288 246.635 276.591 242.599C264.352 238.71 251.325 245.094 246.781 256.928C245.535 256.267 244.234 255.717 242.86 255.276C241.669 254.891 240.478 254.616 239.269 254.433C241.486 252.378 243.208 249.754 244.179 246.672C247.202 237.15 241.944 226.986 232.435 223.959C231.775 223.757 231.115 223.592 230.438 223.464C231.61 217.465 228.129 211.392 222.156 209.502C217.52 208.035 212.683 209.484 209.569 212.805C208.854 209.539 206.637 206.714 203.467 205.283C204.402 204.2 205.153 202.916 205.593 201.467C207.407 195.761 204.255 189.67 198.557 187.872C197.952 187.67 197.348 187.56 196.743 187.468C197.201 186.716 197.568 185.891 197.861 185.01C199.785 178.919 196.432 172.406 190.349 170.48C184.266 168.553 177.762 171.911 175.838 178.02C175.38 179.433 175.233 180.864 175.325 182.258C172.1 182.497 169.15 184.294 167.446 187.12C166.493 185.615 165.028 184.441 163.195 183.854C159.091 182.478 154.657 184.79 153.338 188.954ZM257.408 288.575C257.646 288.043 257.884 287.511 258.104 286.961C258.892 287.383 259.716 287.749 260.559 288.08C259.496 288.19 258.452 288.373 257.408 288.575Z" fill="white"/>
<path d="M147.567 146.813C153.65 147.327 158.175 152.702 157.644 158.793C157.369 162.077 155.683 164.884 153.228 166.719C155.518 167.948 156.984 170.461 156.746 173.213C156.435 176.901 153.192 179.653 149.491 179.341C145.808 179.029 143.059 175.782 143.371 172.076C143.481 170.828 143.921 169.709 144.599 168.755C139.065 167.746 135.089 162.646 135.584 156.922C136.115 150.812 141.465 146.281 147.567 146.813Z" fill="white"/>
<path d="M132.487 145.859C129.72 145.62 127.668 143.18 127.907 140.41C128.145 137.64 130.582 135.585 133.348 135.824C136.115 136.062 138.167 138.502 137.929 141.272C137.69 144.043 135.254 146.097 132.487 145.859Z" fill="white"/>
<path d="M166.585 172.369C162.334 172.002 159.201 168.259 159.549 164.021C159.916 159.765 163.654 156.628 167.886 156.976C172.137 157.343 175.27 161.086 174.922 165.324C174.555 169.58 170.817 172.717 166.585 172.369Z" fill="white"/>
</g>
<path d="M87.4515 162.151C90.4013 163.655 94.0108 160.848 93.3878 157.564C93.3512 157.325 93.2962 157.087 93.2596 156.848C63.1747 136.301 55.1313 113.184 52.9693 102.103C52.8777 102.323 52.8044 102.58 52.7677 102.819C50.5324 114.542 49.7629 142.85 87.4515 162.151Z" fill="#E5474B"/>
<path d="M93.2598 156.848C91.4825 147.272 89.6137 131.916 92.9666 120.963C93.5346 119.128 92.82 117.257 91.1894 116.413L58.7226 99.7546C56.5789 98.6538 53.8489 99.8279 52.9878 102.103C55.1315 113.184 63.1749 136.3 93.2598 156.848Z" fill="#D91C20"/>
<path d="M156.855 95.9376C158.21 98.9647 155.242 102.432 151.981 101.662C151.743 101.607 151.523 101.552 151.266 101.497C132.248 70.4178 109.565 61.2447 98.627 58.5661C98.8651 58.4927 99.1033 58.4377 99.3598 58.401C111.141 56.7131 139.412 57.3185 156.855 95.9376Z" fill="#E5474B"/>
<path d="M151.285 101.496C141.812 99.2581 126.587 96.6346 115.502 99.4783C113.651 99.9553 111.801 99.148 111.05 97.4785L96.0072 64.1799C95.0178 61.9784 96.3187 59.3182 98.6272 58.5476C109.566 61.2445 132.248 70.4177 151.285 101.496Z" fill="#D91C20"/>
<path d="M87.7617 113.422C91.7376 116.578 95.8784 119.678 100.166 122.724L127.173 96.9657C124.479 92.3057 121.749 87.8476 119.001 83.6279L87.7617 113.422Z" fill="#E5474B"/>
<path d="M76.9885 123.714C81.0744 126.686 85.38 129.622 89.9056 132.539L100.184 122.742C95.8786 119.697 91.7561 116.596 87.7802 113.44L76.9885 123.714Z" fill="#D91C20"/>
<path d="M16.0318 32.5331C25.2662 24.791 33.3645 15.2876 37.1939 10.5725C33.1447 8.84799 29.2054 7.39863 25.4127 6.16943C15.7936 3.0689 7.16394 1.45442 0 0.665527C0.0366442 1.16088 0.0549663 1.67458 0.109933 2.18827C2.69335 8.20587 7.80521 19.0302 16.0318 32.5331Z" fill="#E5474B"/>
<path d="M87.7627 113.422L119.002 83.609C92.16 42.3848 62.3683 21.2498 37.1938 10.5723C33.3644 15.2873 25.2661 24.7907 16.0317 32.5328C29.9749 55.3924 52.8958 85.884 87.7627 113.422Z" fill="#FCD600"/>
<path d="M8.11637 38.4592C10.7914 36.7163 13.4664 34.6982 16.0315 32.5333C7.8049 19.0304 2.69303 8.20607 0.109619 2.18848C0.622638 9.0867 1.8319 17.2692 4.26873 26.3689C5.31309 30.24 6.57732 34.2946 8.11637 38.4592Z" fill="#D91C20"/>
<path d="M76.989 123.715L87.7807 113.422C52.8954 85.8846 29.9745 55.393 16.0314 32.5334C13.4663 34.6983 10.7912 36.7164 8.11621 38.4593C17.5704 64.1442 37.2117 94.911 76.989 123.715Z" fill="#F7931E"/>
<path d="M123.82 131.108L124.131 130.814C126.513 128.539 126.605 124.742 124.333 122.357L84.1159 80.105C81.844 77.72 78.0513 77.6283 75.6694 79.9032L75.3579 80.1967C72.9761 82.4717 72.8845 86.2694 75.1564 88.6544L115.373 130.924C117.645 133.291 121.438 133.383 123.82 131.108Z" fill="#D91C20"/>
<path d="M122.904 130.118L123.179 129.842C124.572 128.521 124.627 126.283 123.308 124.907L81.5332 81.0045C80.214 79.6102 77.9787 79.5551 76.6046 80.8761L76.3297 81.1513C74.9372 82.4722 74.8823 84.7105 76.2015 86.0864L117.976 129.989C119.295 131.402 121.512 131.457 122.904 130.118Z" fill="#E5474B"/>
<path d="M65.7712 53.4563C67.8508 42.9719 61.0485 32.7845 50.5779 30.7021C40.1073 28.6197 29.9334 35.431 27.8538 45.9154C25.7742 56.3999 32.5765 66.5873 43.0471 68.6696C53.5176 70.752 63.6916 63.9407 65.7712 53.4563Z" fill="#E5474B"/>
<path d="M61.4304 50.0309C61.6218 41.9476 55.2328 35.2395 47.1603 35.0479C39.0877 34.8563 32.3885 41.2537 32.1971 49.3369C32.0057 57.4202 38.3947 64.1282 46.4672 64.3199C54.5398 64.5115 61.239 58.1141 61.4304 50.0309Z" fill="#221181"/>
<path d="M38.0178 35.7988C37.0834 36.3859 36.1856 37.0831 35.3428 37.872" stroke="#F7B2B0" stroke-width="0.7362" stroke-miterlimit="10" stroke-linecap="round" stroke-linejoin="round"/>
<path d="M58.6117 38.423C53.9213 33.5062 46.9405 32.1118 40.9492 34.3501" stroke="#F7B2B0" stroke-width="0.7362" stroke-miterlimit="10" stroke-linecap="round" stroke-linejoin="round"/>
<path d="M55.8994 63.4465C56.6506 62.9328 57.3652 62.364 58.0431 61.7219" stroke="#F7B2B0" stroke-width="0.7362" stroke-miterlimit="10" stroke-linecap="round" stroke-linejoin="round"/>
<path d="M43.166 65.8863C46.9404 66.7119 50.9529 66.1982 54.4524 64.3269" stroke="#F7B2B0" stroke-width="0.7362" stroke-miterlimit="10" stroke-linecap="round" stroke-linejoin="round"/>
<path d="M38.75 64.2173C39.4462 64.6026 40.1608 64.9328 40.8937 65.208" stroke="#F7B2B0" stroke-width="0.7362" stroke-miterlimit="10" stroke-linecap="round" stroke-linejoin="round"/>
<path d="M47.5082 43.394C45.9508 41.7611 43.3674 41.7061 41.7551 43.2472C40.1244 44.8066 40.0694 47.3935 41.6085 49.0079C43.1659 50.6408 45.7493 50.6958 47.3616 49.1547C48.9923 47.6136 49.0473 45.0268 47.5082 43.394Z" fill="#AC86EE"/>
<path d="M55.9361 47.7058C54.8917 46.605 53.1695 46.5683 52.0701 47.614C50.9708 48.6598 50.9342 50.3843 51.9785 51.4851C53.0229 52.5859 54.7452 52.6226 55.8445 51.5769C56.9438 50.5128 56.9804 48.7882 55.9361 47.7058Z" fill="#AC86EE"/>
<path opacity="0.2" d="M240.756 321.491C257.25 312.413 263.27 291.666 254.204 275.151C245.138 258.636 224.418 252.607 207.925 261.685C191.431 270.764 185.411 291.511 194.477 308.026C203.543 324.541 224.263 330.57 240.756 321.491Z" fill="white"/>
<path opacity="0.2" d="M242.385 450.651C265.769 448.246 282.778 427.314 280.376 403.899C277.973 380.484 257.069 363.452 233.685 365.858C210.301 368.263 193.291 389.195 195.694 412.61C198.096 436.025 219 453.057 242.385 450.651Z" fill="white"/>
<path opacity="0.2" d="M210.576 241.764C216.97 233.368 215.357 221.372 206.972 214.97C198.587 208.567 186.607 210.183 180.213 218.579C173.819 226.975 175.433 238.971 183.818 245.373C192.202 251.776 204.183 250.16 210.576 241.764Z" fill="white"/>
<path opacity="0.2" d="M144.799 213.52C145.734 202.623 155.298 194.55 166.181 195.486C177.064 196.422 185.126 205.998 184.192 216.896C183.257 227.794 173.693 235.866 162.81 234.93C151.945 233.995 143.865 224.418 144.799 213.52Z" fill="white"/>
<path opacity="0.2" d="M281.449 222.406C284.387 205.311 272.929 189.068 255.856 186.126C238.784 183.184 222.562 194.657 219.624 211.752C216.686 228.847 228.144 245.091 245.216 248.033C262.289 250.975 278.511 239.501 281.449 222.406Z" fill="white"/>
<path opacity="0.2" d="M325.413 361.496C328.812 340.656 314.697 321.003 293.885 317.6C273.073 314.196 253.446 328.33 250.047 349.169C246.648 370.009 260.763 389.661 281.575 393.065C302.387 396.469 322.014 382.335 325.413 361.496Z" fill="white"/>
<path opacity="0.2" d="M287.924 334.2C291.324 313.361 277.208 293.708 256.396 290.304C235.585 286.9 215.958 301.034 212.558 321.874C209.159 342.713 223.274 362.366 244.086 365.77C264.898 369.174 284.525 355.039 287.924 334.2Z" fill="white"/>
<circle opacity="0.2" cx="43.6983" cy="43.6983" r="43.6983" transform="matrix(-1 0 0 1 368.771 407.806)" fill="white"/>
</svg>
