<svg width="72" height="72" viewBox="0 0 72 72" fill="none" xmlns="http://www.w3.org/2000/svg">
<circle cx="36" cy="36" r="35" stroke="#BD00FF" stroke-width="2"/>
<path d="M54.4835 16.0443C54.6467 15.8851 54.74 15.6677 54.7429 15.4397C54.7458 15.2118 54.6581 14.9921 54.4989 14.8288C54.3398 14.6656 54.1223 14.5723 53.8944 14.5694C53.6665 14.5665 53.4467 14.6543 53.2835 14.8134L51.1809 16.8551L44.4549 12.9723C44.3246 12.897 44.1768 12.8574 44.0264 12.8574C43.8759 12.8574 43.7281 12.897 43.5978 12.9723L36.3121 17.1783C36.1818 17.2535 36.0736 17.3617 35.9983 17.492C35.9231 17.6223 35.8835 17.7701 35.8835 17.9205V26.0368L33.4955 29.0737C33.4826 29.0962 33.4709 29.1194 33.4604 29.1431H30.7406C30.5133 29.1431 30.2953 29.2334 30.1345 29.3942C29.9738 29.5549 29.8835 29.7729 29.8835 30.0003V34.286H19.7135C19.3877 34.2861 19.0686 34.3791 18.7938 34.5541C18.5189 34.729 18.2996 34.9787 18.1615 35.2738C18.0235 35.5689 17.9724 35.8973 18.0142 36.2204C18.056 36.5435 18.1891 36.848 18.3978 37.0982L21.3121 40.5962V54.8574C21.3134 55.9936 21.7654 57.0829 22.5688 57.8863C23.3723 58.6898 24.4616 59.1417 25.5978 59.1431H39.3121C40.4483 59.1417 41.5376 58.6898 42.341 57.8863C43.1445 57.0829 43.5964 55.9936 43.5978 54.8574V35.1431C43.5978 34.9158 43.5075 34.6978 43.3467 34.537C43.186 34.3763 42.968 34.286 42.7406 34.286H35.0264V30.0003C35.0264 29.972 35.0126 29.948 35.0101 29.9205L36.9549 27.4477L43.5978 31.286C43.7281 31.3612 43.8759 31.4008 44.0264 31.4008C44.1768 31.4008 44.3246 31.3612 44.4549 31.286L51.1449 27.4237L53.2509 29.7251C53.4044 29.8929 53.6182 29.9928 53.8453 30.0029C54.0724 30.0131 54.2943 29.9326 54.4621 29.7791C54.6298 29.6257 54.7298 29.4119 54.7399 29.1847C54.75 28.9576 54.6695 28.7357 54.5161 28.568L52.1692 26.0008V18.2865L54.4835 16.0443ZM31.5978 30.8574H33.3121V34.286H31.5978V30.8574ZM31.5978 36.0003H33.3121V41.1431H31.5978V36.0003ZM19.7135 36.0003H29.8835V41.1431H23.0264V40.286C23.0265 40.0852 22.9561 39.8907 22.8275 39.7365L19.7135 36.0003ZM35.0264 36.0003H41.8835V41.1431H35.0264V36.0003ZM35.0264 42.8574H41.8835V54.8574C41.8835 55.5394 41.6126 56.1934 41.1303 56.6757C40.6481 57.1579 39.9941 57.4288 39.3121 57.4288H25.5978C24.9158 57.4288 24.2617 57.1579 23.7795 56.6757C23.2973 56.1934 23.0264 55.5394 23.0264 54.8574V42.8574H29.8835V44.5811C29.7204 44.6986 29.5668 44.8287 29.4241 44.9702C28.8248 45.5697 28.4168 46.3333 28.2515 47.1646C28.0862 47.9959 28.1711 48.8576 28.4956 49.6406C28.82 50.4237 29.3693 51.093 30.074 51.5638C30.7788 52.0347 31.6073 52.286 32.4549 52.286C33.3025 52.286 34.1311 52.0347 34.8358 51.5638C35.5406 51.093 36.0899 50.4237 36.4143 49.6406C36.7387 48.8576 36.8236 47.9959 36.6584 47.1646C36.4931 46.3333 36.085 45.5697 35.4858 44.9702C35.3431 44.8287 35.1895 44.6986 35.0264 44.5811V42.8574ZM35.0264 48.0002C35.0274 48.338 34.9614 48.6726 34.8322 48.9846C34.703 49.2967 34.5132 49.58 34.2738 49.8182C33.7837 50.2859 33.1323 50.5467 32.4549 50.5467C31.7775 50.5467 31.1262 50.2859 30.6361 49.8182C30.3517 49.5437 30.1357 49.2063 30.0055 48.8331C29.8752 48.4599 29.8344 48.0613 29.8863 47.6695C29.9381 47.2776 30.0812 46.9034 30.304 46.5769C30.5269 46.2504 30.8232 45.9808 31.1692 45.7897C31.2995 45.7145 31.4077 45.6062 31.4829 45.4759C31.5582 45.3456 31.5978 45.1978 31.5978 45.0474V42.8574H33.3121V45.0465C33.3121 45.197 33.3517 45.3448 33.4269 45.4751C33.5021 45.6054 33.6103 45.7136 33.7406 45.7888C34.1359 46.0056 34.4645 46.326 34.691 46.7157C34.9176 47.1054 35.0335 47.5495 35.0264 48.0002ZM50.4549 25.8397L44.0264 29.5511L37.5978 25.8397V18.4151L44.0264 14.7037L50.4549 18.4151V25.8397Z" fill="#FFB803"/>
<path d="M40.1692 18.8574C39.9418 18.8574 39.7238 18.9477 39.5631 19.1085C39.4023 19.2692 39.312 19.4872 39.312 19.7146V24.0003C39.312 24.2276 39.4023 24.4456 39.5631 24.6064C39.7238 24.7671 39.9418 24.8574 40.1692 24.8574C40.3965 24.8574 40.6145 24.7671 40.7752 24.6064C40.936 24.4456 41.0263 24.2276 41.0263 24.0003V19.7146C41.0263 19.4872 40.936 19.2692 40.7752 19.1085C40.6145 18.9477 40.3965 18.8574 40.1692 18.8574Z" fill="#FFB803"/>
<path d="M43.692 17.2929C43.6406 17.393 43.6095 17.5023 43.6005 17.6145C43.5914 17.7267 43.6045 17.8396 43.639 17.9468C43.6736 18.0539 43.7289 18.1532 43.8018 18.2389C43.8747 18.3247 43.9638 18.3952 44.064 18.4466L47.8834 20.4C48.0858 20.5036 48.3211 20.5224 48.5375 20.4525C48.7538 20.3826 48.9336 20.2296 49.0371 20.0271C49.1407 19.8247 49.1595 19.5894 49.0896 19.3731C49.0197 19.1567 48.8667 18.977 48.6642 18.8734L44.8457 16.9191C44.7454 16.8679 44.636 16.8369 44.5237 16.8279C44.4115 16.819 44.2985 16.8322 44.1914 16.8669C44.0842 16.9016 43.985 16.9571 43.8993 17.0302C43.8136 17.1033 43.7431 17.1925 43.692 17.2929Z" fill="#FFB803"/>
<path d="M47.8835 23.5394L44.0675 25.4911C43.9672 25.5424 43.878 25.613 43.805 25.6988C43.732 25.7846 43.6766 25.8839 43.642 25.9911C43.5721 26.2077 43.591 26.4431 43.6947 26.6457C43.7983 26.8482 43.9782 27.0013 44.1947 27.0712C44.4113 27.1411 44.6467 27.1222 44.8492 27.0185L48.6644 25.0659C48.7646 25.0147 48.8538 24.9442 48.9268 24.8584C48.9997 24.7727 49.0551 24.6734 49.0898 24.5663C49.1244 24.4592 49.1376 24.3463 49.1285 24.234C49.1195 24.1218 49.0885 24.0125 49.0372 23.9122C48.986 23.812 48.9155 23.7228 48.8297 23.6499C48.744 23.5769 48.6447 23.5215 48.5376 23.4869C48.4305 23.4522 48.3176 23.4391 48.2053 23.4481C48.0931 23.4571 47.9838 23.4881 47.8835 23.5394Z" fill="#FFB803"/>
<path d="M25.5979 44.5723C25.3705 44.5723 25.1525 44.6626 24.9918 44.8233C24.831 44.9841 24.7407 45.2021 24.7407 45.4294V46.2866C24.7407 46.5139 24.831 46.7319 24.9918 46.8926C25.1525 47.0534 25.3705 47.1437 25.5979 47.1437C25.8252 47.1437 26.0432 47.0534 26.204 46.8926C26.3647 46.7319 26.455 46.5139 26.455 46.2866V45.4294C26.455 45.2021 26.3647 44.9841 26.204 44.8233C26.0432 44.6626 25.8252 44.5723 25.5979 44.5723Z" fill="#FFB803"/>
<path d="M39.3121 47.1437C39.5394 47.1437 39.7574 47.0534 39.9182 46.8926C40.0789 46.7319 40.1692 46.5139 40.1692 46.2866V45.4294C40.1692 45.2021 40.0789 44.9841 39.9182 44.8233C39.7574 44.6626 39.5394 44.5723 39.3121 44.5723C39.0848 44.5723 38.8668 44.6626 38.706 44.8233C38.5453 44.9841 38.455 45.2021 38.455 45.4294V46.2866C38.455 46.5139 38.5453 46.7319 38.706 46.8926C38.8668 47.0534 39.0848 47.1437 39.3121 47.1437Z" fill="#FFB803"/>
<path d="M33.786 53.4372L33.6051 53.5272C33.2477 53.7048 32.854 53.7972 32.4548 53.7972C32.0557 53.7972 31.662 53.7048 31.3046 53.5272L31.1237 53.4372C31.0229 53.3858 30.9129 53.3549 30.8002 53.3463C30.6874 53.3376 30.574 53.3514 30.4665 53.3867C30.3591 53.4221 30.2597 53.4784 30.1741 53.5524C30.0885 53.6264 30.0184 53.7165 29.9678 53.8177C29.9173 53.9189 29.8872 54.0291 29.8795 54.142C29.8717 54.2548 29.8863 54.3681 29.9226 54.4753C29.9588 54.5825 30.0158 54.6814 30.0905 54.7664C30.1651 54.8514 30.2558 54.9208 30.3574 54.9706L30.5383 55.0563C31.1338 55.3523 31.7898 55.5063 32.4548 55.5063C33.1199 55.5063 33.7759 55.3523 34.3714 55.0563L34.5523 54.9706C34.6539 54.9208 34.7446 54.8514 34.8192 54.7664C34.8939 54.6814 34.9509 54.5825 34.9871 54.4753C35.0234 54.3681 35.038 54.2548 35.0302 54.142C35.0224 54.0291 34.9924 53.9189 34.9418 53.8177C34.8913 53.7165 34.8212 53.6264 34.7356 53.5524C34.65 53.4784 34.5506 53.4221 34.4432 53.3867C34.3357 53.3514 34.2223 53.3376 34.1095 53.3463C33.9967 53.3549 33.8868 53.3858 33.786 53.4372Z" fill="#FFB803"/>
</svg>
