<svg width="26" height="25" viewBox="0 0 26 25" fill="none" xmlns="http://www.w3.org/2000/svg">
<g clip-path="url(#clip0_382_4200)">
<path d="M18.677 3.2228C18.7113 4.55502 19.6378 5.87816 21.3869 5.87816C23.0229 5.87816 24.1028 4.6509 24.1028 3.1471C24.1028 1.78965 23.1692 0.415039 21.3859 0.415039C20.419 0.415039 19.5329 0.847002 19.0292 1.74827L14.6924 0.447335C14.2746 0.323197 13.8497 0.571474 13.7427 0.979215L11.8019 8.3569C9.54523 8.51838 7.48432 9.14109 5.79583 10.0817C3.00019 7.46269 -0.821878 11.7298 1.66695 14.686C-0.123471 20.2793 6.30349 24.6372 12.9939 24.6372C19.7367 24.6372 26.088 20.2066 24.3208 14.686C26.8015 11.7399 23.0077 7.46572 20.1879 10.0797C18.3005 9.03007 15.9429 8.38616 13.3754 8.32763L15.0073 2.1227L18.677 3.2228ZM21.3859 1.92893C22.273 1.92893 22.5879 2.58495 22.5879 3.14811C22.5879 3.82129 22.1751 4.36528 21.3859 4.36528C20.4977 4.36528 20.1838 3.70926 20.1838 3.14609C20.1838 2.46585 20.5996 1.92893 21.3859 1.92893ZM4.44645 10.9668C3.64611 11.5795 2.97798 12.2758 2.47133 13.0378C2.08782 11.6128 3.3181 10.3815 4.44645 10.9668ZM12.9939 23.1234C3.96806 23.1234 -0.526165 15.8749 5.94722 11.7208C6.37313 11.525 8.63589 9.82739 12.9939 9.82739C16.7846 9.82739 18.5185 11.0223 20.0385 11.7197C26.4877 15.8567 22.0752 23.1234 12.9939 23.1234ZM23.5164 13.0388C23.0098 12.2758 22.3416 11.5795 21.5403 10.9668C22.6918 10.3724 23.8969 11.6269 23.5164 13.0388Z" fill="#FFB803"/>
<path d="M11.2832 15.4881C11.2832 14.1549 10.276 13.2617 9.0457 13.2617C7.95974 13.2617 6.80615 14.0419 6.80615 15.4881C6.80615 16.8204 7.81137 17.7146 9.04368 17.7146C10.1296 17.7146 11.2832 16.9344 11.2832 15.4881ZM8.32004 15.4881C8.32004 14.8271 8.87513 14.7756 9.0457 14.7756C9.45243 14.7756 9.76934 15.0067 9.76934 15.4881C9.76934 16.1492 9.21424 16.2007 9.04368 16.2007C8.87412 16.2007 8.32004 16.1492 8.32004 15.4881Z" fill="#FFB803"/>
<path d="M16.9441 13.2617C15.8582 13.2617 14.7046 14.0419 14.7046 15.4881C14.7046 16.8204 15.7098 17.7146 16.9421 17.7146C18.0281 17.7146 19.1817 16.9344 19.1817 15.4881C19.1817 14.1549 18.1744 13.2617 16.9441 13.2617ZM16.9421 16.2007C16.7726 16.2007 16.2185 16.1492 16.2185 15.4881C16.2185 14.8271 16.7736 14.7756 16.9441 14.7756C17.3509 14.7756 17.6678 15.0067 17.6678 15.4881C17.6678 16.1492 17.1127 16.2007 16.9421 16.2007Z" fill="#FFB803"/>
<path d="M16.3214 19.0054C15.2051 20.5365 10.8169 20.5556 9.66733 19.0064C9.10214 18.1869 7.86479 19.0296 8.41484 19.8562C10.0206 22.2805 15.9671 22.2815 17.5729 19.8562C18.1138 19.0458 16.8997 18.201 16.3214 19.0054Z" fill="#FFB803"/>
</g>
<defs>
<clipPath id="clip0_382_4200">
<rect width="24.2222" height="24.2222" fill="white" transform="translate(0.882812 0.415039)"/>
</clipPath>
</defs>
</svg>
