<svg width="26" height="26" viewBox="0 0 26 26" fill="none" xmlns="http://www.w3.org/2000/svg">
<path d="M0.318807 25.9391C0.318807 25.7944 0.318807 25.6835 0.318807 25.5732C0.317708 21.3681 0.341338 17.1635 0.309465 12.9589C0.267701 7.47529 3.64294 2.81585 8.34586 0.97054C12.6443 -0.717149 16.7428 -0.220075 20.4675 2.58955C23.3542 4.767 25.0512 7.741 25.4875 11.3984C26.2255 17.5778 22.6272 23.3479 16.8615 25.3109C15.6184 25.7342 14.3347 25.929 13.0262 25.9307C8.86737 25.9369 4.70904 25.9369 0.550162 25.9391C0.486965 25.9391 0.423769 25.9391 0.318807 25.9391ZM5.31738 20.8321C5.43608 20.8091 5.50697 20.7984 5.57621 20.7809C6.9429 20.4353 8.30904 20.0857 9.67738 19.7474C9.79883 19.7175 9.95215 19.7248 10.0659 19.7744C11.2991 20.3159 12.5789 20.4932 13.9066 20.3176C17.9325 19.7851 20.7577 15.8935 20.0911 11.8009C19.4217 7.69203 15.6563 4.97528 11.6508 5.71104C7.00445 6.56446 4.38537 11.797 6.43293 16.1536C6.55877 16.4215 6.57306 16.6416 6.48624 16.9208C6.08892 18.2055 5.71359 19.498 5.31738 20.8321Z" fill="#FFB803"/>
</svg>
