<svg width="26" height="21" viewBox="0 0 26 21" fill="none" xmlns="http://www.w3.org/2000/svg">
<path d="M25.1321 2.70469C24.7351 2.88016 24.3268 3.02825 23.9097 3.14848C24.4036 2.59201 24.7801 1.93725 25.0099 1.22074C25.0614 1.06014 25.008 0.884345 24.8755 0.779306C24.7432 0.674187 24.5594 0.661595 24.4137 0.747624C23.5279 1.27111 22.5722 1.64732 21.5701 1.8673C20.5607 0.884508 19.1897 0.325195 17.7724 0.325195C14.7807 0.325195 12.3468 2.75034 12.3468 5.73123C12.3468 5.966 12.3617 6.19947 12.3912 6.4297C8.67878 6.10492 5.22743 4.28677 2.85739 1.38996C2.77292 1.28671 2.6428 1.23106 2.50958 1.2417C2.37628 1.2521 2.25652 1.327 2.18918 1.44211C1.70848 2.26398 1.45436 3.20397 1.45436 4.16036C1.45436 5.46299 1.92111 6.69892 2.74561 7.66465C2.49491 7.57814 2.25163 7.47001 2.01943 7.34158C1.89477 7.27244 1.74264 7.2735 1.6188 7.34426C1.49488 7.41501 1.41718 7.54516 1.41392 7.6874C1.41335 7.71136 1.41335 7.73533 1.41335 7.75962C1.41335 9.70401 2.4636 11.4546 4.06931 12.4087C3.93136 12.395 3.7935 12.3751 3.65653 12.349C3.51532 12.3221 3.37012 12.3714 3.27489 12.4787C3.17951 12.5859 3.14795 12.7354 3.1919 12.8719C3.78624 14.7208 5.31646 16.0808 7.16634 16.4954C5.63205 17.453 3.87747 17.9545 2.03558 17.9545C1.65125 17.9545 1.26472 17.932 0.886427 17.8874C0.698503 17.8652 0.518814 17.9757 0.454813 18.1538C0.390813 18.332 0.458645 18.5306 0.618523 18.6327C2.98473 20.1444 5.72076 20.9435 8.53065 20.9435C14.0545 20.9435 17.5101 18.348 19.4363 16.1706C21.8381 13.4556 23.2156 9.86193 23.2156 6.31117C23.2156 6.16284 23.2133 6.01304 23.2088 5.86373C24.1564 5.15234 24.9722 4.2914 25.6361 3.30186C25.737 3.15157 25.726 2.95295 25.6092 2.8146C25.4925 2.67617 25.2981 2.63141 25.1321 2.70469Z" fill="#FFB803"/>
</svg>
