<svg width="24" height="20" viewBox="0 0 24 20" fill="none" xmlns="http://www.w3.org/2000/svg">
<path d="M12.5 17.125V15.875C12.5 15.212 12.2366 14.5761 11.7678 14.1072C11.2989 13.6384 10.663 13.375 10 13.375H5C4.33696 13.375 3.70107 13.6384 3.23223 14.1072C2.76339 14.5761 2.5 15.212 2.5 15.875V17.125" stroke="white" stroke-opacity="0.7" stroke-linecap="round" stroke-linejoin="round"/>
<path d="M7.5 10.875C8.88071 10.875 10 9.75571 10 8.375C10 6.99429 8.88071 5.875 7.5 5.875C6.11929 5.875 5 6.99429 5 8.375C5 9.75571 6.11929 10.875 7.5 10.875Z" stroke="white" stroke-opacity="0.7" stroke-linecap="round" stroke-linejoin="round"/>
<path d="M20.6667 17.5V15.8333C20.6667 14.9493 20.3155 14.1014 19.6904 13.4763C19.0653 12.8512 18.2174 12.5 17.3334 12.5H10.6667C9.78265 12.5 8.93481 12.8512 8.30968 13.4763C7.68456 14.1014 7.33337 14.9493 7.33337 15.8333V17.5" stroke="white" stroke-width="2" stroke-linecap="round" stroke-linejoin="round"/>
<path d="M14 9.16667C15.8409 9.16667 17.3333 7.67428 17.3333 5.83333C17.3333 3.99238 15.8409 2.5 14 2.5C12.159 2.5 10.6666 3.99238 10.6666 5.83333C10.6666 7.67428 12.159 9.16667 14 9.16667Z" stroke="white" stroke-width="2" stroke-linecap="round" stroke-linejoin="round"/>
</svg>
